<svg id="svg" version="1.1" width="400" height="355" xmlns="http://www.w3.org/2000/svg" xmlns:xlink="http://www.w3.org/1999/xlink" style="display: block;" fill="none">
<path name="西店镇" d="M123.9 30L125 34L127 36L129 39L129 43L131 45L134 45L136 45L139 45L141 46L142 48L144 51L143 53L141 56L140 59L141 62L143 65L146 67L150 68L155 69L159 70L162 72L166 74L171 76L174 78L175 78C176 78 177 77 177 77L178 76L178 73L178 70L179 67L181 66L182 63L182 61L184 56L184 53L183 51L180 47L179 45L180 40L178 39L176 37L176 34L176 31L177 28L179 28L182 28L183 26L183 24L184 23L184 21L182 18L181 16L180 13L180 11L180 9L180.7 6.2L178.3 4.9L175.9 3.8L174.3 2.9L173.2 3.6L171.5 6.4L170.8 8.2L169.1 8.5L166.1 9.099999L164.1 9.9L162.4 10.7L160 13L158.7 12.5L156.3 10.8L154.7 8.900001L155.2 8.1L153.4 5.7L152.1 3.9L150.1 2.8L148 2.2L145.6 1.5L143.4 0.8L142 1.4L143 4L141.1 6L141.8 7.5L139.9 7.900001L138.2 10.8L136.5 12.2L135.8 14.4L134.3 16.5L133.4 18.9L132 20.9L131 23.4L130.6 25.7L129.2 27L128.4 28.7L126.8 29.7L123.9 30Z" fill="#004882" fill-opacity="1" stroke="#1796CD" stroke-opacity="1" transform="matrix(0.867,0,0,0.874,26.561,45.868)" stroke-dasharray="none" xmlns="http://www.w3.org/2000/svg" />
<path name="强蛟镇" d="M181 7L180 9L180 12L180 14L181 16L182 18L183 19L184 21L184 23L183 24L183 26L182 28L177 28L176 31L176 37L180 40L179 45L181 48L183 51L184 53L184 56L182 61L182 63L181 66L179 67L178 70L178 76L180 76L182 75L183 73L185 72L187 70L189 69L190 67L194 67L197 68L202 67L204 65L210 63L212 62L215 62L218 64L219 65L221 65L222 62L222 59L222 56L224 54L226 51L228 49L230 48L233 46L236 45L238 45L238 47L240 47L242 47L243 46C243 46 244 45 245 44L246 43L247 42L250 41L251 38L252 36L253 34L256 33L258 32L260.9 30.7L263.9 29.7L266.3 28.3L270.3 27.3L271 26C271.6666 26 274 25.6 274 25L276.3 24.5L279.4 23.6L281.5 21.6L283 20L285 18L287 16L289 14L290 13L291.4 11.1L291.4 8.700001L287 8L283 8L280 8L275.7 6.5L272 7L268 8L264 8L261 9L259 11L255 14L252.6 16.5L249.6 19.5L246 23L243 25L239 24L236.1 23.3L234.1 21.7L230 22L227.1 21.3L223.5 21.6L219 21L214 21L208 21L202 21L198 21L195 20L193 18L191 15L189 12L186 10L183 8L181 7Z" fill="#004882" fill-opacity="1" stroke="#1796CD" stroke-opacity="1" transform="matrix(0.867,0,0,0.874,26.561,45.868)" xmlns="http://www.w3.org/2000/svg" />
<path name="大佳何镇" d="M202 67L203 70L204 73L206 76L208 81L211 85L215 88L217 91L223 89L228 88L234 88L240 90L244 92L249 92L255 91L259 89L263 89L265 90L268 90L268 87L268 85L269 83L271 82L275 82L278 80L279 78L280 76L282 76L287 78L290 79L293 79L295 78L296 76L297 74L295.2 71.5L292.5 69.2L291.4 65.7L288.4 64.7L285.9 62.7L284.1 60.8L280 58L278 58L276 60L274 61.4L270.8 61.2L267 61L262 61L258.4 60.4L256 58L255.4 54.1L254.3 50.9L253.3 47.9L251 46L250 43L250 41L247 42L242 47L238 47L238 45L236 45L233 46L228 49L226 51L224 54L222 56L222 62L221 65L219 65L215 62L212 62L207 64L204 65L202 67Z" fill="#004882" fill-opacity="1" stroke="#1796CD" stroke-opacity="1" transform="matrix(0.867,0,0,0.874,26.561,45.868)" xmlns="http://www.w3.org/2000/svg" />
<path name="力洋镇" d="M302.2 82.6L301.7 86.4L303.7 89.4L305.3 91.1L306.3 95.1L306 97L306 102L305 105L303 106L300 107L297 108L296 110L296 113L296 116L296 119L296 122L296 126L298 129L299 131L299 133L301 136L302 137L302 140L301 142L301 145L300 147L298 146L297 144L296 142L295 140L293 139L291 139L289 138L288 136L286 134L283 132L283 130L282 127C281 127 281 128 281 128L281 131L281 132L280 136L281 139L283 140L285 142L286 143C286 144 288 146 288 146L288 148L288 151L288 153L287 155L286 157L285 160L284 163L284 166L284 169L286 172L286 176L286 178L287 180L288 182L289 184L290 188L290 191L290 194L291 197L292 200L292 204L296.8 210.5L296.7 219.3L295.5 227.7L288.8 233L278.2 228.2L272.7 221.9L268.4 218L264.7 217.4L260.4 211.8L257.6 207.2L261.5 199.8L261.2 189.7L258.8 182.8L259 176L259 173L257 169L255 167L253 163L251 158L251 154L249 151L248 147L248 143L247 139L246 135L246 131L245 127L246 122L249 118L250 116L252 113L251 109L251 106L252 103L254 102L257 100L258 97L260 95L263 94L265 92L267.7 90.1L267.7 85.1L269 83L271 82L275 82L278 80L280 76L282 76L289 79L292 79L295 78L297.1 74.9L299.5 76.6L301.6 78.3L302.2 82.6Z" fill="#004882" fill-opacity="1" stroke="#1796CD" stroke-opacity="1" transform="matrix(0.867,0,0,0.874,26.561,45.868)" xmlns="http://www.w3.org/2000/svg" />
<path name="东仓乡" d="M302 137L304 139L306 140L309 141L313 142L318 142L324 142L328 143L331 144L334 144L338 144L342 142L345 142L348 141L352 142L353 142L352 140L351 138L349 137L347 136L345 134L344 132L342 130L342 127L341 124L341 120L341 116L341 113L341 110L341 107L342 104L342 101L341 99L340 97L341 95L341 92L340 91L338 91L337 92L336 94L333 94L331 92L328 91L325 91L324 93L323 95L323 97L322 99L319 99L317 97L315 95L310.8 94.9L307 93L306 93L306 95C306 95 306 98 306 97L306 100L306 102L305 105L303 106L297 108L296 110L296 126L299 131L299 133L302 137Z" fill="#004882" fill-opacity="1" stroke="#1796CD" stroke-opacity="1" transform="matrix(0.867,0,0,0.874,26.561,45.868)" xmlns="http://www.w3.org/2000/svg" />
<path name="胡陈乡" d="M290 189L290 194L292 200L295 201L299 202L302 203L304 203L309 203L312 205L316 208L317 211C317 211 318 213 319 213L322 215L326 217L331 218L333 216L335 214L336 212L337 209L339 206L342 204L346 203L350 201L353 199L357 199L358 196L358 192L358 186L357 183L356 180L355 175L354 170L352 166L352 163L354 161L355 158L356 156L356 152L355 149L354 146L354 143L352 142L348 141L345 142L342 142L338 144L331 144L324 142L313 142L308 141L305 140L303 138L302 137L302 140L301 142L301 145L300 147L298 146L295 140L293 139L291 139L289 138L288 136L286 134L283 132L283 130L282 127L281 128L281 132L280 136L281 139L283 140L286 143L288 146L288 153L286 157L284 163L284 169L286 172L286 178L289 184L290 189Z" fill="#004882" fill-opacity="1" stroke="#1796CD" stroke-opacity="1" transform="matrix(0.867,0,0,0.874,26.561,45.868)" xmlns="http://www.w3.org/2000/svg" />
<path name="长街镇" d="M292 200L296 201L301 203L308 203L310 203.6L316 207.6L316 208L317 211L319 213L322 215L326 217L331 218L335 214L337 209L339 206L342 204L346 203L353 199L357 199L358 201L361 200L363 198L368 197L372 198L379 198L385 198L388 196L393 196L396 199L398 202L399 205L399 208L398 212L396 216L393 218L390 220L387 222L385 224L384 227L383 229L382 232L381 235L381 238L380 241L379 244L378 246L377 249L377 251L376 254L375 260L374 264L372 267L366 267L361 267L356 268L352 270L346 271L340 271L338 268L335 265L334 260L332 255L330 251L327 250L324 248L320 245L317 244L313 244L310 246L305 247L301 247L295 246L292 244L292 241L290 238L290 236L291 234L289 233L295 228L296 226L296 223L297 219L297 214L297 210L292 204L292 200Z" fill="#004882" fill-opacity="1" stroke="#1796CD" stroke-opacity="1" transform="matrix(0.867,0,0,0.874,26.561,45.868)" xmlns="http://www.w3.org/2000/svg" />
<path name="明港镇" d="M289 233L283 237L282 240L283 244L282 251L281 253L279 255L277 259L277 261L276 264L274 266L272 268L270 270L271 272L272 276L272 278L272 281L272 284L276 286L279 288L283 290L287 293L291 295L295 298L300 300L304 302L309 305L314 307L318 310L322 312L326 314L330 316L335 318L340 319L342 317L346 315L350 313L354 312L356 310L358 308L359 305L361 301L363 297L365 293L367 289L368 285L369 282L371 278L372 275L373 272L374 268L374 265L372 267L367 267L361 267L356 268L352 270L347 271L340 271L338 268L335 265L334 260L330 251L327 250L320 245L317 244L313 244L310 246L305 247L300 247L295 246L292 244L292 241L290 238L290 236L291 234L289 233Z" fill="#004882" fill-opacity="1" stroke="#1796CD" stroke-opacity="1" transform="matrix(0.867,0,0,0.874,26.561,45.868)" xmlns="http://www.w3.org/2000/svg" />
<path name="前横乡" d="M258 207L253 209L249 208L244 207L241 206L238 204L236 203L235 204L236 206L236 208L236 210L236 212L236 215L235 217L234 219L232 218L229 218L229 220L231 224L232 226L231 228L228 229L225 230L221 230L220 231L221 234L222 236L223 239L224 242L223 245L222 250L224 252L226 253L229 254L231 255L234 257L235 262L237 264L239 266L242 268L246 268L248 270L253 273L254 276L258 278L261 282L266 283L270 283L272 283L272 279L272 276L270 270L276 264L277 259L279 255L281 253L282 251L283 244L282 240L283 237L289 233L278 228L273 222L268 218L264 217L261 213L258 209L258 207Z" fill="#004882" fill-opacity="1" stroke="#1796CD" stroke-opacity="1" transform="matrix(0.867,0,0,0.874,26.561,45.868)" xmlns="http://www.w3.org/2000/svg" />
<path name="深甽镇" d="M104 20L108 23L112 24L115 26L118 28L120 30L124 31L125 34L129 39L129 43L131 45L138 45L141 46L143 49L144 51L143 53L141 56L140 59L141 62L143 65L142 67L141 70L140 73L141 76L139 79L136 79L135 80L133 84L134 86L132 89L130 92L126 94L124 96L124 98L123 102L121 106L118 110L116 113L112 116L109 120L109 124L111 128L109 131L105 134L101 138L97 137L94 138L92 140L89 141L87 142L83 142L78 142L75 143L70 143L64 142L60 140L54 139L50 139L43 140L41 138L39 137L36 137L33 136L37 133L40 131L42 129L43 126L44 122L43 120L42 117L42 114L41 112L42 109L42 106L43 104L44 101L43 98L42 95L43 93L45 93L48 92L51 91L53 89L54 87L55 86L56 84L57 82L58 79L59 75L60 73L61 71L62 68L64 66L66 64L67 62L68 60L68 57L67 55L67 53L67 50L69 47L71 44L73 43L74 41L75 38L76 36L78 35L81 37L84 38L86 39L89 38L91 37L93 35L95 32L97 29L99 27L101 25L102 23L103 21L104 20Z" fill="#004882" fill-opacity="1" stroke="#1796CD" stroke-opacity="1" transform="matrix(0.867,0,0,0.874,26.561,45.868)" stroke-dasharray="none" xmlns="http://www.w3.org/2000/svg" />
<path name="双峰乡" d="M32 136L28 141L23 145L22 149L23 152L23 156L23 159L20 162L18 164L19 167L19 168L22 167L23 166L25 166L25 168L26 169L25 172L24 174L23 176L21 178L18 180L16 183L14 186L13 189L12 192L11 195L10 198L10 201L11 204L12 207L13 210L12 212L9 212L6 211L5 213L4 216L3 218L2 220L1 222L1 225L2 227L3 225L5 224L8 224L10 225L13 226L15 227L18 228L20 228L18 226L17 224L17 223L18 223L19 224L20 225L21 226L23 227L24 227L26 227L29 227L32 228L35 228L36 229L38 229L40 230L42 230L45 230L48 232L51 233L54 235L56 236L59 237L62 238L64 237L63 235L63 231L64 229L65 227L66 223L68 221L69 218L71 216L72 213L74 212L76 210L78 208L79 205L80 202L80 199L79 196L78 193L76 190L74 186L74 181L75 177L76 174L75 172L74 168L72 169L71 170L69 170L68 169L67 168L66 167L64 166L59 165L57 163L57 160L55 158L54 156L51 155L48 154L46 152L44 151L42 149L40 147L39 145L38 143L36 140L35 139L33 138L32 136Z" fill="#004882" fill-opacity="1" stroke="#1796CD" stroke-opacity="1" transform="matrix(0.867,0,0,0.874,26.561,45.868)" xmlns="http://www.w3.org/2000/svg" />
<path name="岔路镇" d="M2 228L3 225L5 224L8 224L10 225L13 226L15 227L18 228L20 228L18 226L17 224L17 223L18 223L19 224L20 225L21 226L23 227L25 227L27 227L29 227L32 228L35 228L36 229L38 229L40 230L45 230L48 232L51 233L54 235L56 236L62 238L64 237L63 235L63 232L63 230L65 227L66 223L68 221L69 218L71 216L72 213L74 212L77 209L78 208L80 208L85 209L88 211L91 213L95 214L97 214L98 216L99 218L101 221L104 224L107 225L109 228L110 232L110 235L110 241L109 244L106 247L105 250L105 253L104 256L101 258L100 261C101 261 99 264 99 264L99 267L97 271L95 273L92 274L88 274L85 276L83 278L80 279L77 279L75 279L75 281L74 283L74 284L72 285L70 286L68 287L67 288L66 291L65 292L63 295L61 295L59 293L56 292L55 290L55 288L55 285L53 283L51 281L49 279L47 276L46 273L45 270L45 267L45 264L45 262L43 261L41 258L41 256L39 255L36 254L33 254L29 255L24 255L20 255L18 254L14 254L10 253L7 252L5 251L4 249L5 247L7 245L9 243L9 241L8 239L7 237L6 235L5 233L3 231L2 228Z" fill="#004882" fill-opacity="1" stroke="#1796CD" stroke-opacity="1" transform="matrix(0.867,0,0,0.874,26.561,45.868)" xmlns="http://www.w3.org/2000/svg" />
<path name="桑洲镇" d="M62 297L64 294L65 292L66 290L67 288L68 287L70 286L72 285L74 284L75 281L75 279L78 279L80 279L83 278L85 276L88 274L92 274L95 273L97 271L99 267L99 264L100 261L101 258L104 256L105 253L106 253L107 254L108 255L111 256L113 256L115 257L116 258L117 259L118 261L119 263L120 265L121 266L122 268L121 269L119 271L120 274L122 276L122 280L121 283L121 286L119 288L119 291L117 293L116 295L115 297L114 299L113 302L113 304L114 307L114 309L115 312L113 314L112 316L110 319L108 321L106 322L104 323L101 325L100 327L99 329L97 331L96 333L95 335L93 335L92 334L92 331L91 329L89 328L87 328L84 328L84 330L84 332L84 334L84 336L84 338L83 340L83 341L82 343L81 345L80 346L78 346L76 344L74 343L73 341L71 339L69 338L67 336L67 333L67 331L65 330L62 328L59 328L59 326L59 324L59 322L60 321L60 318L60 316L60 314L60 311L60 308L60 306L60 304L60 302L60 299L62 297Z" fill="#004882" fill-opacity="1" stroke="#1796CD" stroke-opacity="1" transform="matrix(0.867,0,0,0.874,26.561,45.868)" xmlns="http://www.w3.org/2000/svg" />
<path name="前童镇" d="M87 210L88 208L90 207L93 205L95 206L97 207L99 206L102 205L103 206L105 207L107 208L108 208L109 207L110 206L113 205C114 205 115 206 115 206L117 207L119 209L120 211C120 211 122 212 122 213L123 214L125 215L128 215L132 215L135 215L138 214L140 214L143 213L146 212L149 212L152 212L154 212L158.1 211.9L160.8 212.3L163 213L166 214L167.3 212.9C168.3 213.9 169.7 214.2 169.7 214.2C170.7 214.2 172 216.4 172 216.4L172 218L170 218L168.4 219.3L166.4 220.3L165.7 221.3L165.7 222.3L165 224L166.2 226L166 228L168.1 229.5L169 232L167 232L165 233L163 234L161 235L159 236L157 237L155 237L152 238L151 238L149 239L146 240L145 241L144 242L143 243L141 244L139 246L138 248L137 249L135 250L133 252L132 254L131 256L131 258L131 261L131 262L130 264L127 266L125 267L123 268L121 266L120 265L119 263L118 261L117 259L115 257L113 256L111 256L109 255L107 254L105 253L105 251L105 249L106 247L107 246L108 245L109 244L110 241L110 237L110 234L110 232L109 230L109 228L108 226L107 225L104 224L103 223L101 221L97 214L95 214L93 213L91 213L87 210Z" fill="#004882" fill-opacity="1" stroke="#1796CD" stroke-opacity="1" transform="matrix(0.867,0,0,0.874,26.561,45.868)" xmlns="http://www.w3.org/2000/svg" />
<path name="一市镇" d="M157 237L167 232L169 232L171 232L173 232L174 231L176 231L177 231L178 231L180 231L181 231L182 231L183 232L182 233L182 234L183 234L184 234L186 234L188 234L190 234L192 234L193 234L194 233L195 232L196 231L197 231L199 232L201 233L202 234L204 234L206 235L208 237L209 238L211 239L213 239L215 239L217 240L218 241L220 243L221 244L223 245L223 247L222 249L222 250L224 252L226 253L228 254L230 254L231 255L232 256L234 257L234 259L235 261L236 263L237 264L239 266L241 267L243 268L245 268L247 269L248 270L249 271L251 272L253 273L253 275L254 276L256 277L258 278L259 279L260 281C260 281 260 282 259 282L257 282L255 282L252 281L249 280L246 281L244 281L242 283L240 285L238 287L237 289L236 291L235 293L234 295L233 297L232 299L231 301L230 303L229 305L228 307L225 309L222 310L218 309L214 308L211 307L208 306L205 306L202 306L198 305L195 304L192 303L189 302L187 299L185 297L183 295L180 294L178 292L174 291L170 291L166 291L163 292L160 293L155 293L151 293L148 292L147 290L147 288L148 286L149 283L148 280L148 278L147 276L146 274L144 272L142 269L141 267L139 265L138 263L137 261L134 260L132 261L131 260L131 256L133 252L135 250L137 249L139 246L141 244L143 243L144 242L146 240L149 239L151 238L153 238L155 237L157 237Z" fill="#004882" fill-opacity="1" stroke="#1796CD" stroke-opacity="1" transform="matrix(0.867,0,0,0.874,26.561,45.868)" xmlns="http://www.w3.org/2000/svg" />
<path name="黄坛镇" d="M32 136L35 137L38 137L41 138L43 140L49 139L52 139L54 139L59 140L60 140L63 142L66 142L69 143L72 143L76 143L79 142L83 142L86 142L89 141L92 140L94 138L97 137L101 138L104 135L106 133L109 131L110 129L111 128L110 126L109 124L111 124L112 125L113 126L115 127L117 127L119 128L121 128L123 128L124 128L125 129L127 130L130 130L132 130L133 131L133 133L133 136L134 137L136 139L136 141L135 143L135 145L136 147L137 149L137 151L138 154L139 154L141 155L141 156L141 158L141 159L141 161L142 163L142 164L142 166L142 168L143 170L145 172L145 174L144 176L144 179L145 180L146 181L146 183L147 186L148 187L149 190L148 192L148 194C148 195 148 197 148 197L149 198L150 199L151 200L153 201L154 203L155 204L155 206L156 209L156 211L157 212L154 212L152 212L150 212L148 212L146 212L144 213L142 213L141 214L139 214L135 215L131 215L128 215L125 215L123 214L122 213L120 211L119 209L117 207L115 206L113 205L110 206L108 208L105 207L103 206L102 205L99 206L97 207L93 205L88 208L87 210L85 209L81 208L78 208L79 204L80 201L80 198L79 196L78 192L76 190L74 186L74 181L76 174L74 168L71 170L69 170L66 167L64 166L59 165L57 163L57 160L55 158L54 156L48 154L46 152L44 151L40 147L38 143L36 140L33 138L32 136Z" fill="#004882" fill-opacity="1" stroke="#1796CD" stroke-opacity="1" transform="matrix(0.867,0,0,0.874,26.561,45.868)" xmlns="http://www.w3.org/2000/svg" />
<path name="梅林街道" d="M143 65L146 67L149 68L153 69L159 70L162 72L166 74L171 76L174 78L175 80L176 84L176 86L175 89L172 90L173 92L174 93L175 95L177 96L180 97L184 99L185 100L187 103L188 105L188 108L191 109L194 110L196 111L196 112L198 114L202 115L203 116L207 118L207 120L208 123L203 124L200 124L196 123L191 122L184 121L183 119L180 118L176 117L174 117L170 117L166 117L162 118C162 118 161 119 160 119L156 119L152 117L150 119L146 120L143 121L141 123L140 125L138 125L136 125L136 127L134 128L131 130L127 130L124 128L119 128L117 127L115 127L113 126L111 124L109 124L109 120L112 116L116 113L121 106L123 102L124 98L124 96L126 94L130 92L134 86L133 84L135 80L136 79L139 79L141 76L140 73L143 65Z" fill="#004882" fill-opacity="1" stroke="#1796CD" stroke-opacity="1" transform="matrix(0.867,0,0,0.874,26.561,45.868)" xmlns="http://www.w3.org/2000/svg" />
<path name="桥头胡街道" d="M174 78L177 77L178 76L181 76L182 75L183 73L185 72L187 70L189 69L190 67L194 67L197 68L202 67L203 70L204 72L204 73L206 76L208 81L210 84L212 86L215 88L217 91L220 90L224 89L227 88L231 88L234 88L236 89L239 90L238 92L237 93L235 93L234 94L231 95L230 96L228 97L226 98L225 99L223 100L221 102L219 103L216 105L214 107L214 109L212 111L210 112L208 114L206 116L206 117L204 117L203 116L202 115L198 114L196 112L196 111L193 110L189 108L188 108L188 106L188 104L187 103L186 101L184 99L180 97L175 95L174 93L173 92L172 90L175 89L176 86L176 83L175 81L174 78Z" fill="#004882" fill-opacity="1" stroke="#1796CD" stroke-opacity="1" transform="matrix(0.867,0,0,0.874,26.561,45.868)" xmlns="http://www.w3.org/2000/svg" />
<path name="茶院乡" d="M239 90L244 92L249 92L254 91L259 89L263 89L266 90L267 90L263 94L260 95L258 97L257 100L252 103L251 106L251 108L251 111L252 112L251 114L250 116L249 118L246 122L245 127L246 131L246 135L247 139L248 143L248 147L249 151L251 154L251 157L251 159L252 161L253 163L249 164L247 163L243 162L241 162L239 161L238 159L238 156L238 153L236 152L234 150L231 150L230 151L228 153L226 153L224 153L221 152L217 150L215 150L211 148L209 147L206 145L204 143L203 142L201 141L198 139L197 138L196 136L196 134L194 131L193 129L193 127L193 125L193 123L196 123L199 124L202 124L205 124L208 123L207 120L207 118L206 117L206 115L208 114L210 112L212 111L214 109L214 107L216 105L219 103L221 102L223 100L225 99L226 98L230 96L231 95L234 94L235 93L237 93L239 90Z" fill="#004882" fill-opacity="1" stroke="#1796CD" stroke-opacity="1" transform="matrix(0.867,0,0,0.874,26.561,45.868)" xmlns="http://www.w3.org/2000/svg" />
<path name="越溪乡" d="M253 163L255 167L257 169L259 173L259 183L261 190L261 191L261 194L261 198L261 200L260 202L259 204L258 206L257 207L255 208L253 209L241 206L236 203L235 204L236 207L236 215L234 219L232 218L229 218L229 220L232 226L231 228L225 230L221 230L220 231L220 232L221 234L222 236L223 239L224 242L223 245L221 244L217 240L215 239L211 239L209 238L206 235L204 234L202 234L197 231L196 231L193 234L193 231L194 226L197 225L197 221L196 217L197 214L199 212L201 209L201 205L203 204L205 203L206 200L207 196L207 192L208 189L209 187L212 186L212 182L211 178L210 175L210 172L209 169L210 167L213 167L216 167L217 166L217 163L216 161L215 158L216 156L217 154L217 152L217 150L221 152L224 153L228 153L231 150L234 150L236 152L238 153L238 159L239 161L241 162L243 162L247 163L249 164L253 163Z" fill="#004882" fill-opacity="1" stroke="#1796CD" stroke-opacity="1" transform="matrix(0.867,0,0,0.874,26.561,45.868)" xmlns="http://www.w3.org/2000/svg" />
<path name="桃源街道" d="M140 125L141 123L143 121L150 119L152 117L156 119L160 119L162 118L166 117L176 117L183 119L184 121L188 122L193 122L193 129L196 134L196 136L197 138L203 142L206 145L209 147L215 150L217 150L217 154L215 158L217 163L217 166L215 167L210 167L209 169L210 172L210 175L206 174L204 172L199 171L195 171L189 171L187 169L185 168L181 168L179 169L176 169L173 167L171 165L166 165L163 164L162 162L158 163L157 165L157 167L156 168L154 169L153 170L151 170L149 169L147 168L145 169L143 170L142 168L142 163L141 161L141 155L139 154L138 154L137 151L137 149L135 145L135 143L136 141L136 139L133 136L133 131L132 130L133 128L136 127L136 125L140 125Z" fill="#004882" fill-opacity="1" stroke="#1796CD" stroke-opacity="1" transform="matrix(0.867,0,0,0.874,26.561,45.868)" xmlns="http://www.w3.org/2000/svg" />
<path name="跃龙街道" d="M151 170L153 170L154 169L156 168L157 167L157 165L158 163L162 162L163 164L166 165L171 165L173 167L176 169L179 169L181 168L185 168L187 169L189 171L199 171L204 172L206 174L210 175L212 182L212 186L209 187L207 192L207 196L205 203L201 205L201 209L199 212L197 214L196 217L197 221L197 225L194 226L193 232L193 234L182 234L183 232L182 231L174 231L173 232L169 232L168 229L166 228L166 226L165 224L166 221L169 219L171 218C172 218 172 216 172 216L170 214L167 213L166 214L161 212L156 212L156 211L156 209L155 206L155 204L153 201L151 200L148 197L148 192L149 190L148 187L147 186L146 183L146 181L144 179L144 176L145 174L145 172L143 170L147 168L151 170Z" fill="#004882" fill-opacity="1" stroke="#1796CD" stroke-opacity="1" transform="matrix(0.867,0,0,0.874,26.561,45.868)" xmlns="http://www.w3.org/2000/svg" />
<text x="150" y="37.8" xml:space="preserve" font-family="宋体" font-size="7" fill="#CCC" stroke="none" baseline-shift="baseline" font-weight="bold" transform="matrix(0.867,0,0,0.874,26.561,45.868)" xmlns="http://www.w3.org/2000/svg">
西店镇</text>
<text x="195" y="42.8" xml:space="preserve" font-family="宋体" font-size="7" fill="#FFF" stroke="none" baseline-shift="baseline" font-weight="bold" transform="matrix(0.867,0,0,0.874,26.561,45.868)" xmlns="http://www.w3.org/2000/svg">
强蛟镇</text>
<text x="235" y="75.8" xml:space="preserve" font-family="宋体" font-size="7" fill="#FFF" stroke="none" baseline-shift="baseline" font-weight="bold" transform="matrix(0.867,0,0,0.874,26.561,45.868)" xmlns="http://www.w3.org/2000/svg">
大佳何镇</text>
<text x="264" y="120.8" xml:space="preserve" font-family="宋体" font-size="7" fill="#FFF" stroke="none" baseline-shift="baseline" font-weight="bold" transform="matrix(0.867,0,0,0.874,22.061,37.868)" xmlns="http://www.w3.org/2000/svg">
力洋镇</text>
<text x="310" y="125.8" xml:space="preserve" font-family="宋体" font-size="7" fill="#FFF" stroke="none" baseline-shift="baseline" font-weight="bold" transform="matrix(0.867,0,0,0.874,26.561,45.868)" xmlns="http://www.w3.org/2000/svg">
东仓乡</text>
<text x="310" y="175.8" xml:space="preserve" font-family="宋体" font-size="7" fill="#FFF" stroke="none" baseline-shift="baseline" font-weight="bold" transform="matrix(0.867,0,0,0.874,26.561,45.868)" xmlns="http://www.w3.org/2000/svg">
胡陈乡</text>
<text x="330" y="230.8" xml:space="preserve" font-family="宋体" font-size="7" fill="#FFF" stroke="none" baseline-shift="baseline" font-weight="bold" transform="matrix(0.867,0,0,0.874,26.561,45.868)" xmlns="http://www.w3.org/2000/svg">
长街镇</text>
<text x="310" y="275.8" xml:space="preserve" font-family="宋体" font-size="7" fill="#FFF" stroke="none" baseline-shift="baseline" font-weight="bold" transform="matrix(0.867,0,0,0.874,26.561,45.868)" xmlns="http://www.w3.org/2000/svg">
明港镇</text>
<text x="245" y="245.8" xml:space="preserve" font-family="宋体" font-size="7" fill="#FFF" stroke="none" baseline-shift="baseline" font-weight="bold" transform="matrix(0.867,0,0,0.874,26.561,45.868)" xmlns="http://www.w3.org/2000/svg">
前横乡</text>
<text x="180" y="270.8" xml:space="preserve" font-family="宋体" font-size="7" fill="#FFF" stroke="none" baseline-shift="baseline" font-weight="bold" transform="matrix(0.867,0,0,0.874,26.561,45.868)" xmlns="http://www.w3.org/2000/svg">
一市镇</text>
<text x="230" y="185.8" xml:space="preserve" font-family="宋体" font-size="7" fill="#FFF" stroke="none" baseline-shift="baseline" font-weight="bold" transform="matrix(0.867,0,0,0.874,18.561,46.368)" xmlns="http://www.w3.org/2000/svg">
越溪乡</text>
<text x="220" y="125.8" xml:space="preserve" font-family="宋体" font-size="7" fill="#FFF" stroke="none" baseline-shift="baseline" font-weight="bold" transform="matrix(0.867,0,0,0.874,26.561,45.868)" xmlns="http://www.w3.org/2000/svg">
茶院乡</text>
<text x="165" y="145.8" xml:space="preserve" font-family="宋体" font-size="7" fill="#FFF" stroke="none" baseline-shift="baseline" font-weight="bold" transform="matrix(0.867,0,0,0.874,16.561,46.868)" xmlns="http://www.w3.org/2000/svg">
桃源街道</text>
<text x="170" y="200.8" xml:space="preserve" font-family="宋体" font-size="7" fill="#FFF" stroke="none" baseline-shift="baseline" font-weight="bold" transform="matrix(0.867,0,0,0.874,19.561,40.868)" xmlns="http://www.w3.org/2000/svg">
跃龙街道</text>
<text x="145" y="100.8" xml:space="preserve" font-family="宋体" font-size="7" fill="#FFF" stroke="none" baseline-shift="baseline" font-weight="bold" transform="matrix(0.867,0,0,0.874,18.061,46.118)" xmlns="http://www.w3.org/2000/svg">
梅林街道</text>
<text x="190" y="95.8" xml:space="preserve" font-family="宋体" font-size="7" fill="#FFF" stroke="none" baseline-shift="baseline" font-weight="bold" transform="matrix(0.867,0,0,0.874,17.061,46.868)" xmlns="http://www.w3.org/2000/svg">
桥头胡街道</text>
<text x="80" y="80.8" xml:space="preserve" font-family="宋体" font-size="7" fill="#FFF" stroke="none" baseline-shift="baseline" font-weight="bold" transform="matrix(0.867,0,0,0.874,23.561,53.868)" xmlns="http://www.w3.org/2000/svg">
深甽镇</text>
<text x="100" y="170.8" xml:space="preserve" font-family="宋体" font-size="7" fill="#FFF" stroke="none" baseline-shift="baseline" font-weight="bold" transform="matrix(0.867,0,0,0.874,21.561,46.368)" xmlns="http://www.w3.org/2000/svg">
黄坛镇</text>
<text x="40" y="200.8" xml:space="preserve" font-family="宋体" font-size="7" fill="#FFF" stroke="none" baseline-shift="baseline" font-weight="bold" transform="matrix(0.867,0,0,0.874,21.061,40.368)" xmlns="http://www.w3.org/2000/svg">
双峰乡</text>
<text x="65" y="250.8" xml:space="preserve" font-family="宋体" font-size="7" fill="#FFF" stroke="none" baseline-shift="baseline" font-weight="bold" transform="matrix(0.867,0,0,0.874,24.561,44.368)" xmlns="http://www.w3.org/2000/svg">
岔路镇</text>
<text x="125" y="230.8" xml:space="preserve" font-family="宋体" font-size="7" fill="#FFF" stroke="none" baseline-shift="baseline" font-weight="bold" transform="matrix(0.867,0,0,0.874,26.561,45.868)" xmlns="http://www.w3.org/2000/svg">
前童镇</text>
<text x="80" y="305.8" xml:space="preserve" font-family="宋体" font-size="7" fill="#FFF" stroke="none" baseline-shift="baseline" font-weight="bold" transform="matrix(0.867,0,0,0.874,26.561,45.868)" xmlns="http://www.w3.org/2000/svg">
桑洲镇</text>
</svg>