<svg id="svg" version="1.1" width="400" height="355" xmlns="http://www.w3.org/2000/svg" xmlns:xlink="http://www.w3.org/1999/xlink" style="display: block;" fill="none">
<g id="svgg" transform="matrix(0.867,0,0,0.874,26.561,21.868)" xmlns="http://www.w3.org/2000/svg">
<path id="path0" stroke="none" fill="#00aaaa" fill-rule="evenodd">
</path>
<path id="path1" stroke="none" fill="#00bfbf" fill-rule="evenodd">
</path>
<path id="path2" stroke="none" fill="#00cccc" fill-rule="evenodd">
</path>
<path id="path3" d="M142.872 1.804 C 142.644 2.032,142.620 2.644,142.819 3.164 C 143.271 4.340,141.778 9.028,140.952 9.028 C 139.432 9.028,132.623 21.146,131.265 26.269 C 129.477 33.008,119.803 33.175,114.266 26.563 C 112.754 24.756,111.859 24.306,109.782 24.306 C 107.920 24.306,106.731 23.821,105.576 22.591 C 103.676 20.569,102.778 20.874,102.778 23.543 C 102.778 25.010,101.940 26.183,99.308 28.403 C 97.074 30.287,95.312 32.551,94.361 34.762 C 93.549 36.650,92.496 38.194,92.022 38.194 C 91.548 38.194,90.365 38.819,89.394 39.583 C 86.969 41.491,85.920 41.348,81.753 38.542 C 77.334 35.566,77.371 35.567,76.414 38.467 C 75.986 39.763,74.144 42.528,72.321 44.611 C 68.199 49.321,66.795 52.406,67.938 54.237 C 70.022 57.574,67.752 65.006,63.636 68.319 C 63.105 68.747,62.135 70.660,61.482 72.569 C 60.828 74.479,60.053 76.514,59.758 77.092 C 59.463 77.669,58.698 79.945,58.057 82.149 C 56.492 87.535,51.437 92.572,46.382 93.785 C 43.133 94.564,42.953 94.724,43.367 96.439 C 44.604 101.557,44.622 104.903,43.421 106.230 C 41.851 107.964,41.874 114.405,43.461 117.473 C 46.557 123.462,42.094 134.722,36.623 134.722 C 35.920 134.722,32.636 137.457,29.326 140.799 L 23.309 146.875 23.529 153.315 L 23.750 159.755 21.183 162.106 C 19.173 163.948,18.720 164.785,19.096 165.969 L 19.576 167.480 21.187 165.966 C 24.456 162.895,26.957 165.789,26.182 171.743 C 25.847 174.308,25.125 175.278,20.091 179.924 C 14.921 184.694,14.416 185.386,14.775 187.215 C 15.077 188.759,14.764 189.665,13.447 191.053 C 11.123 193.503,10.459 199.441,12.060 203.443 C 12.684 205.002,13.194 207.870,13.194 209.816 L 13.194 213.354 9.375 212.877 C 5.796 212.430,5.556 212.493,5.556 213.872 C 5.556 215.313,3.972 219.023,2.104 221.959 C 0.948 223.776,2.410 227.973,5.604 232.005 C 6.723 233.419,7.639 235.419,7.639 236.450 C 7.639 237.740,8.072 238.438,9.028 238.688 C 11.520 239.339,10.842 242.866,7.639 245.913 C 6.111 247.366,4.861 248.855,4.861 249.221 C 4.861 252.566,22.331 255.376,33.359 253.805 C 38.554 253.065,41.162 254.110,42.054 257.292 C 42.614 259.286,43.310 260.154,44.728 260.627 C 46.605 261.253,46.636 261.352,46.184 265.245 C 45.586 270.402,47.989 276.416,52.925 282.114 C 55.465 285.046,56.481 286.851,56.759 288.923 C 57.031 290.950,57.408 291.637,58.102 291.371 C 58.632 291.168,59.588 291.610,60.225 292.355 C 61.011 293.273,61.896 293.579,62.977 293.308 C 65.840 292.590,65.826 294.984,62.952 297.695 L 60.416 300.088 60.871 310.116 C 61.276 319.020,61.186 320.406,60.068 322.481 C 58.347 325.678,59.027 327.081,62.305 327.092 C 65.114 327.101,68.337 330.586,67.958 333.205 C 67.671 335.194,68.784 337.500,70.031 337.500 C 70.684 337.500,72.016 338.359,72.991 339.410 C 78.387 345.224,81.250 346.599,81.250 343.378 C 81.250 342.410,81.718 340.904,82.289 340.032 C 83.436 338.282,83.805 332.705,82.979 329.614 C 82.336 327.209,83.301 326.415,86.886 326.400 C 90.452 326.384,93.056 328.599,93.056 331.648 C 93.056 335.343,94.613 334.549,97.078 329.596 C 99.493 324.742,103.355 320.833,105.736 320.833 C 107.218 320.833,111.806 316.450,111.806 315.033 C 111.806 314.655,112.304 313.795,112.913 313.121 C 113.867 312.068,113.904 311.432,113.178 308.553 C 111.881 303.406,112.176 301.302,114.973 295.753 C 122.267 281.282,123.077 277.727,119.717 274.938 C 116.709 272.442,119.070 268.065,124.788 265.536 C 127.325 264.414,128.989 263.079,130.278 261.130 C 132.206 258.218,134.094 257.603,136.135 259.223 C 137.530 260.330,143.288 267.914,144.423 270.139 C 144.910 271.094,146.015 272.656,146.879 273.611 C 148.984 275.939,150.021 286.041,148.301 287.469 C 145.684 289.641,148.865 292.681,153.004 291.963 C 154.598 291.686,157.309 291.362,159.028 291.243 C 160.747 291.124,164.743 290.825,167.909 290.578 C 177.770 289.808,179.284 290.303,185.354 296.286 C 192.153 302.986,192.619 303.213,202.083 304.426 C 206.476 304.990,212.726 306.248,215.972 307.222 C 226.224 310.299,224.884 311.295,234.092 293.750 C 241.320 279.978,242.507 278.831,248.958 279.397 C 253.707 279.814,269.090 281.805,271.181 282.273 C 271.944 282.444,277.726 285.776,284.028 289.677 C 290.330 293.578,300.642 299.415,306.944 302.648 C 313.247 305.881,322.229 310.670,326.906 313.291 C 337.149 319.030,335.303 318.993,346.846 313.691 L 356.347 309.327 361.203 298.934 C 369.381 281.432,373.611 269.516,373.611 263.980 C 373.611 262.588,373.935 260.357,374.330 259.023 C 374.726 257.689,375.532 254.097,376.122 251.042 C 376.711 247.986,377.644 244.532,378.194 243.366 C 378.745 242.200,379.487 239.451,379.844 237.257 C 381.582 226.582,383.566 223.310,392.173 216.928 C 395.687 214.323,397.316 212.632,397.603 211.291 C 397.828 210.237,398.304 208.657,398.659 207.780 C 399.743 205.106,399.429 204.239,396.086 200.665 C 392.397 196.721,391.775 196.610,384.583 198.603 C 380.778 199.657,379.017 199.830,377.127 199.333 C 371.590 197.879,364.606 197.898,363.692 199.370 C 362.807 200.796,358.090 202.444,356.936 201.731 C 356.526 201.477,356.435 198.158,356.703 193.175 C 357.081 186.145,356.971 184.705,355.896 182.627 C 355.212 181.303,354.501 178.119,354.318 175.551 C 354.076 172.178,353.624 170.557,352.686 169.709 C 351.085 168.259,350.956 163.900,352.431 161.045 C 353.003 159.935,353.963 158.083,354.563 156.929 C 355.662 154.812,355.069 150.809,353.388 148.993 C 353.053 148.630,352.772 146.755,352.766 144.826 C 352.753 141.143,350.796 138.194,348.364 138.194 C 347.763 138.194,346.922 137.542,346.495 136.744 C 346.068 135.946,344.573 134.025,343.172 132.475 C 340.233 129.222,339.142 117.051,340.634 104.167 C 340.953 101.409,340.787 99.791,340.035 98.346 C 339.275 96.886,339.174 95.868,339.661 94.587 C 340.083 93.477,340.086 92.586,339.670 92.170 C 338.844 91.344,337.500 92.118,337.500 93.419 C 337.500 95.107,335.176 95.855,333.289 94.774 C 331.367 93.672,331.105 93.562,327.814 92.475 C 325.024 91.553,324.542 91.983,323.871 95.992 C 322.978 101.332,320.036 101.895,315.920 97.514 C 314.960 96.492,313.559 95.833,312.346 95.833 C 306.732 95.833,299.565 88.145,300.826 83.477 C 301.536 80.849,300.518 79.113,295.080 73.672 C 293.329 71.920,291.685 69.640,291.428 68.607 C 291.071 67.171,290.416 66.625,288.652 66.294 C 287.087 66.001,285.146 64.621,282.631 62.016 C 278.840 58.088,278.010 57.985,276.903 61.305 C 276.528 62.429,268.188 63.314,266.497 62.409 C 265.696 61.980,263.230 61.670,261.018 61.720 C 256.388 61.825,256.168 61.599,254.898 55.424 C 254.451 53.251,253.506 50.736,252.797 49.835 C 246.695 42.078,248.634 34.076,257.442 30.663 C 260.415 29.511,264.253 27.961,265.972 27.218 C 267.691 26.475,271.441 24.993,274.306 23.924 C 279.716 21.905,287.024 15.934,289.267 11.700 C 290.461 9.448,289.757 9.028,284.793 9.028 C 282.985 9.028,279.769 8.707,277.646 8.314 C 272.604 7.382,259.722 9.405,259.722 11.129 C 259.722 11.439,258.588 12.734,257.201 14.006 C 252.245 18.554,248.611 22.267,248.611 22.785 C 248.611 25.621,239.682 26.519,235.215 24.132 C 232.432 22.645,231.448 22.562,214.760 22.408 L 197.229 22.246 194.500 20.440 C 192.783 19.304,191.364 17.616,190.672 15.888 C 189.787 13.676,188.931 12.866,186.280 11.729 C 184.468 10.953,182.740 9.878,182.440 9.341 C 181.832 8.257,176.729 4.651,174.814 3.953 C 173.858 3.605,173.343 4.113,172.487 6.254 C 171.384 9.010,168.868 10.402,164.969 10.413 C 164.226 10.415,162.771 11.228,161.735 12.220 C 158.919 14.919,154.297 11.439,151.697 4.662 C 151.151 3.240,143.812 0.864,142.872 1.804 M350.000 136.803 C 350.000 137.159,350.618 137.782,351.373 138.186 C 352.475 138.776,352.670 138.722,352.361 137.917 C 351.913 136.749,350.000 135.846,350.000 136.803 " stroke="none" fill="#00c7e7" fill-rule="evenodd">
</path>
<path id="path4" d="M141.146 0.460 C 140.115 0.876,139.973 2.778,140.972 2.778 C 141.354 2.778,141.667 3.247,141.667 3.819 C 141.667 4.392,141.391 4.861,141.053 4.861 C 140.716 4.861,140.256 5.408,140.032 6.076 C 139.424 7.886,138.002 9.931,136.632 10.966 C 135.964 11.471,135.417 12.335,135.417 12.887 C 135.417 13.438,135.164 13.889,134.856 13.889 C 134.547 13.889,133.716 15.217,133.008 16.840 C 132.300 18.464,131.488 19.948,131.203 20.140 C 130.919 20.331,130.266 22.206,129.753 24.306 C 128.928 27.681,128.598 28.151,126.910 28.345 C 125.859 28.466,125.000 28.856,125.000 29.213 C 125.000 29.569,124.063 29.861,122.917 29.861 C 121.771 29.861,120.833 29.579,120.833 29.235 C 120.833 28.890,119.925 28.292,118.816 27.905 C 117.706 27.518,116.591 26.550,116.338 25.753 C 116.085 24.957,115.421 24.306,114.862 24.306 C 114.303 24.306,113.665 23.837,113.446 23.264 C 113.187 22.589,112.110 22.222,110.393 22.222 C 108.430 22.222,107.403 21.795,106.448 20.580 C 104.123 17.624,102.083 17.534,102.083 20.386 C 102.083 22.446,101.405 23.485,97.569 27.302 C 95.087 29.773,93.056 32.249,93.056 32.805 C 93.056 35.695,87.213 38.919,84.344 37.612 C 83.406 37.185,82.639 36.516,82.639 36.126 C 82.639 35.736,82.273 35.417,81.826 35.417 C 81.378 35.417,80.453 34.911,79.770 34.293 C 78.127 32.805,75.000 33.529,75.000 35.397 C 75.000 37.646,73.468 40.497,70.863 43.096 C 67.326 46.625,65.642 50.668,66.334 53.969 C 67.338 58.755,67.061 61.844,65.516 63.088 C 64.732 63.719,63.898 64.783,63.664 65.451 C 63.430 66.120,62.816 66.667,62.300 66.667 C 61.764 66.667,60.957 68.153,60.417 70.139 C 59.897 72.049,59.283 73.611,59.054 73.611 C 58.622 73.611,57.341 77.832,56.577 81.771 C 56.336 83.012,55.852 84.028,55.500 84.028 C 55.149 84.028,54.861 84.504,54.861 85.087 C 54.861 85.669,54.107 86.432,53.184 86.783 C 52.262 87.134,51.307 88.052,51.062 88.825 C 50.774 89.732,49.769 90.388,48.225 90.678 C 46.909 90.925,45.833 91.405,45.833 91.744 C 45.833 92.083,44.740 92.361,43.403 92.361 C 40.647 92.361,39.894 95.532,41.992 98.305 C 43.286 100.016,43.349 103.753,42.101 104.789 C 40.109 106.442,40.320 118.648,42.352 119.326 C 44.307 119.977,43.122 128.276,40.946 129.178 C 39.785 129.658,38.547 130.592,38.193 131.252 C 37.829 131.933,36.337 132.647,34.747 132.902 C 33.113 133.163,31.944 133.732,31.944 134.267 C 31.944 135.237,27.227 140.278,26.320 140.278 C 26.027 140.278,25.590 140.902,25.348 141.665 C 25.106 142.428,24.170 143.238,23.268 143.464 C 20.997 144.034,20.796 144.973,21.544 151.531 C 22.266 157.863,21.489 161.111,19.253 161.111 C 17.571 161.111,17.116 162.614,17.673 166.328 C 18.196 169.811,20.085 170.624,21.689 168.056 C 23.560 165.059,25.535 167.513,24.616 171.695 C 24.186 173.651,20.753 177.771,19.545 177.782 C 18.269 177.792,12.500 184.792,12.500 186.329 C 12.500 187.268,12.033 188.931,11.463 190.025 C 10.892 191.119,10.423 192.717,10.421 193.576 C 10.419 194.436,10.104 195.139,9.722 195.139 C 8.652 195.139,8.901 201.938,10.034 203.670 C 10.588 204.516,11.254 206.544,11.515 208.177 L 11.988 211.145 8.078 210.685 L 4.167 210.225 4.167 212.752 C 4.167 214.149,3.820 215.278,3.391 215.278 C 2.958 215.278,2.776 215.890,2.979 216.667 C 3.194 217.488,3.000 218.056,2.505 218.056 C 1.569 218.056,0.000 221.871,0.000 224.149 C 0.000 226.706,2.634 232.619,4.340 233.894 C 5.094 234.456,5.556 235.725,5.556 237.233 C 5.556 238.571,5.821 239.501,6.145 239.301 C 6.470 239.100,7.142 239.696,7.639 240.625 C 8.659 242.532,7.879 244.054,5.493 244.812 C 4.763 245.043,4.167 245.680,4.167 246.227 C 4.167 246.775,3.854 247.222,3.472 247.222 C 2.183 247.222,2.766 249.916,4.447 251.730 C 6.492 253.936,9.519 254.861,14.694 254.861 C 16.861 254.861,18.738 255.163,18.866 255.532 C 19.203 256.509,26.421 257.201,30.263 256.625 C 32.606 256.274,33.281 255.948,32.583 255.506 C 31.898 255.072,32.391 254.879,34.201 254.872 C 35.662 254.866,36.806 255.202,36.806 255.637 C 36.806 256.089,37.528 256.274,38.542 256.080 C 39.550 255.887,40.279 256.072,40.282 256.520 C 40.296 259.324,41.855 262.613,43.024 262.307 C 44.146 262.014,44.313 262.611,44.592 267.929 C 44.779 271.499,45.220 273.985,45.694 274.143 C 46.128 274.288,46.688 275.495,46.938 276.826 C 47.207 278.260,48.064 279.686,49.043 280.328 C 49.951 280.923,50.694 281.784,50.694 282.242 C 50.694 282.699,51.632 283.972,52.778 285.069 C 54.425 286.647,54.861 287.658,54.861 289.893 C 54.861 292.875,56.582 294.807,58.562 294.047 C 59.157 293.818,59.686 294.230,59.913 295.100 C 60.365 296.826,59.795 299.306,58.947 299.306 C 58.609 299.306,58.333 301.024,58.333 303.125 C 58.333 305.226,58.646 306.944,59.028 306.944 C 60.083 306.944,59.937 319.952,58.877 320.305 C 58.344 320.482,58.024 322.106,58.009 324.703 L 57.986 328.819 60.764 329.167 C 64.105 329.584,66.633 331.575,66.153 333.411 C 65.617 335.460,67.881 339.583,69.542 339.583 C 70.379 339.583,71.113 340.154,71.327 340.972 C 71.526 341.736,71.939 342.361,72.244 342.361 C 72.548 342.361,73.924 343.455,75.300 344.792 C 80.604 349.943,83.343 347.718,84.492 337.326 C 84.692 335.512,85.139 334.028,85.484 334.028 C 85.829 334.028,86.111 333.403,86.111 332.639 C 86.111 331.875,85.799 331.250,85.417 331.250 C 85.035 331.250,84.722 330.625,84.722 329.861 C 84.722 328.753,85.185 328.472,87.014 328.472 C 89.817 328.472,90.972 329.526,90.972 332.083 C 90.972 333.153,91.285 334.028,91.667 334.028 C 92.049 334.028,92.361 334.497,92.361 335.069 C 92.361 335.642,92.850 336.111,93.448 336.111 C 95.332 336.111,97.222 334.725,97.222 333.343 C 97.222 332.612,97.647 331.764,98.166 331.458 C 98.685 331.153,99.485 329.746,99.945 328.332 C 100.413 326.890,101.372 325.573,102.126 325.334 C 102.867 325.099,103.472 324.656,103.472 324.349 C 103.472 324.042,104.904 323.391,106.655 322.901 C 108.888 322.275,110.022 321.523,110.457 320.380 C 110.798 319.483,111.366 318.750,111.720 318.750 C 112.074 318.750,112.706 317.770,113.123 316.572 C 113.541 315.374,114.390 314.023,115.010 313.570 C 116.236 312.673,115.800 305.556,114.518 305.556 C 114.172 305.556,113.889 304.462,113.889 303.125 C 113.889 301.788,114.170 300.694,114.514 300.694 C 114.857 300.694,115.700 299.132,116.387 297.222 C 117.074 295.313,117.878 293.750,118.173 293.750 C 118.469 293.750,119.211 292.031,119.822 289.931 C 120.432 287.830,121.163 286.111,121.446 286.111 C 123.733 286.111,123.812 276.939,121.547 274.327 C 119.884 272.410,119.697 270.139,121.202 270.139 C 121.787 270.139,122.444 269.674,122.663 269.105 C 122.881 268.536,124.276 267.743,125.763 267.343 C 127.249 266.942,128.789 266.236,129.185 265.773 C 133.528 260.687,133.666 260.583,135.288 261.191 C 136.172 261.523,136.721 262.075,136.509 262.418 C 136.297 262.762,136.902 263.553,137.853 264.176 C 138.805 264.800,139.583 265.756,139.583 266.301 C 139.583 266.846,139.974 267.542,140.451 267.847 C 141.515 268.528,143.051 271.193,143.068 272.386 C 143.074 272.869,143.855 274.000,144.804 274.899 C 145.980 276.015,146.528 277.284,146.528 278.892 C 146.528 280.189,146.840 281.250,147.222 281.250 C 148.362 281.250,148.045 285.913,146.875 286.362 C 146.189 286.625,145.833 287.712,145.833 289.544 C 145.833 294.656,146.913 294.801,168.297 292.569 C 173.104 292.068,178.762 292.923,180.336 294.389 C 181.078 295.080,182.368 296.011,183.203 296.458 C 184.039 296.905,184.726 297.651,184.730 298.115 C 184.739 299.187,189.115 303.472,190.200 303.472 C 190.649 303.472,191.180 303.900,191.380 304.423 C 191.635 305.085,194.359 305.639,200.386 306.254 C 205.139 306.739,209.028 307.353,209.028 307.618 C 209.028 307.884,209.418 308.137,209.896 308.180 C 212.549 308.417,220.833 310.718,220.833 311.218 C 220.833 311.541,221.927 311.806,223.264 311.806 C 224.601 311.806,225.694 311.493,225.694 311.111 C 225.694 310.729,226.133 310.417,226.668 310.417 C 227.204 310.417,227.969 309.479,228.368 308.333 C 228.768 307.187,229.373 306.250,229.714 306.250 C 230.055 306.250,230.746 305.000,231.250 303.472 C 231.754 301.944,232.387 300.694,232.656 300.694 C 232.925 300.694,233.705 299.210,234.391 297.396 C 235.076 295.582,235.856 293.941,236.124 293.750 C 236.938 293.171,238.889 289.029,238.889 287.882 C 238.889 287.290,239.201 286.806,239.583 286.806 C 239.965 286.806,240.278 286.322,240.278 285.732 C 240.278 285.141,241.213 284.125,242.357 283.475 C 243.500 282.824,244.438 282.057,244.440 281.771 C 244.442 281.484,246.007 281.250,247.917 281.250 C 249.826 281.250,251.389 281.496,251.389 281.796 C 251.389 282.096,255.828 282.728,261.253 283.200 C 266.787 283.681,271.326 284.395,271.592 284.826 C 271.853 285.249,272.414 285.380,272.839 285.117 C 273.264 284.855,273.611 284.979,273.611 285.393 C 273.611 285.807,274.392 286.443,275.347 286.806 C 276.302 287.169,277.086 287.708,277.090 288.004 C 277.094 288.300,278.500 289.159,280.215 289.913 C 281.930 290.667,283.333 291.528,283.333 291.828 C 283.333 292.127,284.583 292.873,286.111 293.484 C 287.639 294.095,288.889 294.843,288.889 295.146 C 288.889 295.449,289.826 296.024,290.972 296.424 C 292.118 296.823,293.056 297.454,293.056 297.825 C 293.056 298.196,294.618 299.018,296.528 299.653 C 298.438 300.287,300.000 301.127,300.000 301.519 C 300.000 301.911,300.469 302.052,301.042 301.832 C 301.615 301.612,302.083 301.711,302.083 302.051 C 302.083 302.392,303.177 303.031,304.514 303.472 C 305.851 303.913,306.944 304.494,306.944 304.763 C 306.944 305.293,311.130 307.183,311.979 307.035 C 312.266 306.985,312.500 307.309,312.500 307.755 C 312.500 308.200,312.698 308.367,312.940 308.125 C 313.182 307.882,314.162 308.299,315.117 309.051 C 316.072 309.802,317.281 310.417,317.802 310.417 C 318.323 310.417,318.750 310.682,318.750 311.006 C 318.750 311.331,320.156 312.176,321.875 312.885 C 323.594 313.594,325.000 314.398,325.000 314.672 C 325.000 314.946,326.091 315.530,327.425 315.970 C 328.759 316.411,330.087 317.145,330.377 317.601 C 332.153 320.406,342.361 320.690,342.361 317.935 C 342.361 317.641,344.080 316.900,346.181 316.290 C 348.281 315.679,350.000 314.939,350.000 314.645 C 350.000 314.352,351.250 313.699,352.778 313.194 C 354.306 312.690,355.556 311.963,355.556 311.579 C 355.556 311.194,355.758 311.082,356.006 311.330 C 356.570 311.894,359.028 309.128,359.028 307.929 C 359.028 307.442,359.476 306.595,360.024 306.047 C 360.572 305.499,361.569 303.367,362.240 301.310 C 362.910 299.253,363.804 297.220,364.227 296.793 C 364.649 296.366,365.436 294.648,365.975 292.974 C 366.514 291.300,367.166 289.774,367.424 289.583 C 368.027 289.136,370.139 282.905,370.139 281.573 C 370.139 281.013,370.395 280.556,370.708 280.556 C 371.021 280.556,371.702 278.993,372.222 277.083 C 372.742 275.174,373.399 273.611,373.681 273.611 C 373.964 273.611,374.392 271.502,374.632 268.924 C 375.269 262.089,376.537 254.861,377.099 254.861 C 377.367 254.861,377.796 253.064,378.052 250.868 C 378.521 246.841,379.807 242.311,380.666 241.663 C 380.922 241.469,381.451 238.999,381.843 236.174 C 382.234 233.349,382.821 230.850,383.147 230.623 C 383.472 230.395,384.177 228.847,384.713 227.183 C 385.249 225.519,386.174 223.977,386.767 223.757 C 387.361 223.536,388.256 222.788,388.755 222.094 C 389.254 221.401,390.123 220.833,390.686 220.833 C 391.249 220.833,391.890 220.365,392.110 219.792 C 392.330 219.219,392.884 218.750,393.341 218.750 C 399.336 218.750,401.877 205.109,397.049 198.844 L 394.097 195.015 389.606 195.356 C 387.136 195.544,385.000 196.041,384.861 196.460 C 384.533 197.443,372.222 197.509,372.222 196.528 C 372.222 196.142,370.370 195.833,368.056 195.833 C 365.764 195.833,363.889 196.078,363.889 196.378 C 363.889 197.074,359.490 199.694,359.028 199.274 C 358.837 199.100,358.681 195.276,358.681 190.776 C 358.681 184.272,358.468 182.461,357.645 181.950 C 356.915 181.498,356.492 179.555,356.215 175.378 C 355.889 170.475,355.558 169.202,354.300 168.030 C 352.556 166.406,352.278 163.343,353.819 162.751 C 354.392 162.531,354.861 161.808,354.861 161.144 C 354.861 160.479,355.380 158.895,356.015 157.623 C 357.014 155.620,357.053 154.839,356.302 151.787 C 355.825 149.849,355.277 146.623,355.084 144.618 C 354.891 142.613,354.449 140.972,354.102 140.972 C 353.756 140.972,353.472 140.503,353.472 139.931 C 353.472 139.358,353.149 138.889,352.755 138.889 C 352.360 138.889,350.975 137.826,349.676 136.528 C 348.377 135.229,347.138 134.344,346.921 134.560 C 346.705 134.777,346.528 134.470,346.528 133.879 C 346.528 133.287,345.618 131.907,344.506 130.812 L 342.485 128.819 342.303 118.750 C 342.204 113.212,342.374 106.578,342.683 104.007 C 343.144 100.161,343.062 99.264,342.217 98.940 C 341.386 98.621,341.300 97.858,341.768 94.933 C 342.252 91.912,342.155 91.177,341.179 90.451 C 339.177 88.962,336.883 89.378,336.396 91.319 C 335.864 93.442,333.694 93.637,332.634 91.658 C 332.144 90.741,331.239 90.290,330.006 90.346 C 328.971 90.393,327.134 90.206,325.922 89.931 C 323.605 89.405,322.237 91.782,322.226 96.354 C 322.224 97.214,321.894 97.917,321.493 97.917 C 320.145 97.917,316.839 95.895,316.425 94.817 C 316.164 94.135,315.128 93.750,313.554 93.750 C 311.222 93.750,309.477 93.067,306.997 91.183 C 302.267 87.591,302.482 88.011,302.663 82.726 C 302.804 78.631,302.646 77.778,301.749 77.778 C 301.153 77.778,300.309 76.997,299.874 76.042 C 299.439 75.087,298.841 74.306,298.546 74.306 C 298.252 74.306,297.806 73.663,297.557 72.877 C 297.307 72.091,296.341 71.158,295.409 70.804 C 293.680 70.147,293.484 69.829,292.755 66.499 C 292.406 64.908,291.870 64.521,289.480 64.139 C 287.524 63.826,286.515 63.276,286.285 62.397 C 286.100 61.690,285.679 61.111,285.348 61.111 C 285.018 61.111,283.606 60.003,282.211 58.648 C 279.415 55.932,277.789 55.791,276.742 58.170 C 276.364 59.031,275.583 59.877,275.006 60.051 C 272.393 60.840,257.639 59.961,257.639 59.016 C 257.639 58.690,257.281 57.544,256.843 56.469 C 256.405 55.394,256.116 53.655,256.201 52.604 C 256.285 51.554,256.019 50.694,255.608 50.694 C 255.197 50.694,254.861 50.226,254.861 49.653 C 254.861 49.080,254.307 48.057,253.629 47.379 C 248.805 42.555,251.392 33.333,257.570 33.333 C 257.990 33.333,258.333 33.086,258.333 32.783 C 258.333 32.480,259.740 31.856,261.458 31.397 C 263.177 30.937,264.583 30.247,264.583 29.864 C 264.583 29.480,264.914 29.167,265.319 29.167 C 265.723 29.167,265.863 29.476,265.630 29.853 C 265.387 30.247,265.665 30.363,266.283 30.126 C 266.876 29.899,267.361 29.468,267.361 29.169 C 267.361 28.870,268.767 28.210,270.486 27.703 C 272.205 27.195,273.611 26.563,273.611 26.298 C 273.611 26.033,274.878 25.603,276.426 25.341 C 277.974 25.079,280.051 24.115,281.041 23.197 C 282.031 22.279,283.109 21.528,283.435 21.528 C 283.761 21.528,284.036 21.137,284.047 20.660 C 284.057 20.182,285.463 18.569,287.172 17.075 C 288.880 15.580,290.278 13.930,290.278 13.407 C 290.278 12.884,290.747 12.277,291.319 12.057 C 292.776 11.498,292.645 8.506,291.146 8.087 C 290.477 7.901,287.196 7.539,283.854 7.284 C 280.512 7.029,277.778 6.535,277.778 6.188 C 277.778 5.840,276.215 5.556,274.306 5.556 C 272.396 5.556,270.833 5.868,270.833 6.250 C 270.833 6.632,269.939 6.944,268.847 6.944 C 262.573 6.944,260.470 7.744,256.754 11.545 C 254.758 13.587,252.734 15.262,252.257 15.268 C 251.780 15.273,251.389 15.754,251.389 16.337 C 251.389 16.919,250.650 17.676,249.748 18.019 C 248.845 18.363,247.931 19.316,247.716 20.137 C 247.501 20.959,246.677 21.800,245.885 22.008 C 245.093 22.215,244.444 22.660,244.444 22.998 C 244.444 23.335,242.882 23.611,240.972 23.611 C 239.063 23.611,237.500 23.341,237.500 23.012 C 237.500 21.036,230.034 20.143,213.965 20.198 C 205.032 20.229,197.532 19.993,197.299 19.674 C 197.066 19.356,196.023 18.656,194.981 18.119 C 193.801 17.511,192.653 16.007,191.935 14.127 C 191.302 12.468,190.347 11.111,189.814 11.111 C 189.281 11.111,188.665 10.642,188.446 10.069 C 188.226 9.497,187.487 9.028,186.805 9.028 C 186.122 9.028,184.560 8.090,183.333 6.944 C 182.107 5.799,180.836 4.861,180.509 4.861 C 180.182 4.861,179.278 4.177,178.499 3.341 C 177.567 2.341,177.083 2.149,177.083 2.780 C 177.083 3.436,176.789 3.336,176.150 2.461 C 174.827 0.651,171.532 1.504,171.517 3.659 C 171.497 6.630,168.631 8.333,163.655 8.333 C 162.283 8.333,161.568 8.745,161.325 9.674 C 160.548 12.644,158.131 11.743,155.859 7.639 C 155.119 6.302,154.123 4.958,153.646 4.653 C 153.168 4.348,152.778 3.531,152.778 2.839 C 152.778 1.074,144.048 -0.711,141.146 0.460 M147.798 2.524 C 149.731 3.148,151.485 4.110,151.697 4.662 C 154.297 11.439,158.919 14.919,161.735 12.220 C 162.771 11.228,164.226 10.415,164.969 10.413 C 168.868 10.402,171.384 9.010,172.487 6.254 C 173.343 4.113,173.858 3.605,174.814 3.953 C 176.729 4.651,181.832 8.257,182.440 9.341 C 182.740 9.878,184.468 10.953,186.280 11.729 C 188.931 12.866,189.787 13.676,190.672 15.888 C 191.364 17.616,192.783 19.304,194.500 20.440 L 197.229 22.246 214.760 22.408 C 231.448 22.562,232.432 22.645,235.215 24.132 C 239.682 26.519,248.611 25.621,248.611 22.785 C 248.611 22.267,252.245 18.554,257.201 14.006 C 258.588 12.734,259.722 11.439,259.722 11.129 C 259.722 9.405,272.604 7.382,277.646 8.314 C 279.769 8.707,282.985 9.028,284.793 9.028 C 289.757 9.028,290.461 9.448,289.267 11.700 C 287.024 15.934,279.716 21.905,274.306 23.924 C 271.441 24.993,267.691 26.475,265.972 27.218 C 264.253 27.961,260.415 29.511,257.442 30.663 C 248.634 34.076,246.695 42.078,252.797 49.835 C 253.506 50.736,254.451 53.251,254.898 55.424 C 256.168 61.599,256.388 61.825,261.018 61.720 C 263.230 61.670,265.696 61.980,266.497 62.409 C 268.188 63.314,276.528 62.429,276.903 61.305 C 278.010 57.985,278.840 58.088,282.631 62.016 C 285.146 64.621,287.087 66.001,288.652 66.294 C 290.416 66.625,291.071 67.171,291.428 68.607 C 291.685 69.640,293.329 71.920,295.080 73.672 C 300.518 79.113,301.536 80.849,300.826 83.477 C 299.565 88.145,306.732 95.833,312.346 95.833 C 313.559 95.833,314.960 96.492,315.920 97.514 C 320.036 101.895,322.978 101.332,323.871 95.992 C 324.542 91.983,325.024 91.553,327.814 92.475 C 331.105 93.562,331.367 93.672,333.289 94.774 C 335.176 95.855,337.500 95.107,337.500 93.419 C 337.500 92.118,338.844 91.344,339.670 92.170 C 340.086 92.586,340.083 93.477,339.661 94.587 C 339.174 95.868,339.275 96.886,340.035 98.346 C 340.787 99.791,340.953 101.409,340.634 104.167 C 339.142 117.051,340.233 129.222,343.172 132.475 C 344.573 134.025,346.068 135.946,346.495 136.744 C 346.922 137.542,347.763 138.194,348.364 138.194 C 350.796 138.194,352.753 141.143,352.766 144.826 C 352.772 146.755,353.053 148.630,353.388 148.993 C 355.069 150.809,355.662 154.812,354.563 156.929 C 353.963 158.083,353.003 159.935,352.431 161.045 C 350.956 163.900,351.085 168.259,352.686 169.709 C 353.624 170.557,354.076 172.178,354.318 175.551 C 354.501 178.119,355.212 181.303,355.896 182.627 C 356.971 184.705,357.081 186.145,356.703 193.175 C 356.435 198.158,356.526 201.477,356.936 201.731 C 358.090 202.444,362.807 200.796,363.692 199.370 C 364.606 197.898,371.590 197.879,377.127 199.333 C 379.017 199.830,380.778 199.657,384.583 198.603 C 391.775 196.610,392.397 196.721,396.086 200.665 C 399.429 204.239,399.743 205.106,398.659 207.780 C 398.304 208.657,397.828 210.237,397.603 211.291 C 397.316 212.632,395.687 214.323,392.173 216.928 C 383.566 223.310,381.582 226.582,379.844 237.257 C 379.487 239.451,378.745 242.200,378.194 243.366 C 377.644 244.532,376.711 247.986,376.122 251.042 C 375.532 254.097,374.726 257.689,374.330 259.023 C 373.935 260.357,373.611 262.588,373.611 263.980 C 373.611 269.516,369.381 281.432,361.203 298.934 L 356.347 309.327 346.846 313.691 C 335.303 318.993,337.149 319.030,326.906 313.291 C 322.229 310.670,313.247 305.881,306.944 302.648 C 300.642 299.415,290.330 293.578,284.028 289.677 C 277.726 285.776,271.944 282.444,271.181 282.273 C 269.090 281.805,253.707 279.814,248.958 279.397 C 242.507 278.831,241.320 279.978,234.092 293.750 C 224.884 311.295,226.224 310.299,215.972 307.222 C 212.726 306.248,206.476 304.990,202.083 304.426 C 192.619 303.213,192.153 302.986,185.354 296.286 C 179.284 290.303,177.770 289.808,167.909 290.578 C 164.743 290.825,160.747 291.124,159.028 291.243 C 157.309 291.362,154.598 291.686,153.004 291.963 C 148.865 292.681,145.684 289.641,148.301 287.469 C 150.021 286.041,148.984 275.939,146.879 273.611 C 146.015 272.656,144.910 271.094,144.423 270.139 C 143.288 267.914,137.530 260.330,136.135 259.223 C 134.094 257.603,132.206 258.218,130.278 261.130 C 128.989 263.079,127.325 264.414,124.788 265.536 C 119.070 268.065,116.709 272.442,119.717 274.938 C 123.077 277.727,122.267 281.282,114.973 295.753 C 112.176 301.302,111.881 303.406,113.178 308.553 C 113.904 311.432,113.867 312.068,112.913 313.121 C 112.304 313.795,111.806 314.655,111.806 315.033 C 111.806 316.450,107.218 320.833,105.736 320.833 C 103.355 320.833,99.493 324.742,97.078 329.596 C 94.613 334.549,93.056 335.343,93.056 331.648 C 93.056 328.599,90.452 326.384,86.886 326.400 C 83.301 326.415,82.336 327.209,82.979 329.614 C 83.805 332.705,83.436 338.282,82.289 340.032 C 81.718 340.904,81.250 342.410,81.250 343.378 C 81.250 346.599,78.387 345.224,72.991 339.410 C 72.016 338.359,70.684 337.500,70.031 337.500 C 68.784 337.500,67.671 335.194,67.958 333.205 C 68.337 330.586,65.114 327.101,62.305 327.092 C 59.027 327.081,58.347 325.678,60.068 322.481 C 61.186 320.406,61.276 319.020,60.871 310.116 L 60.416 300.088 62.952 297.695 C 65.826 294.984,65.840 292.590,62.977 293.308 C 61.896 293.579,61.011 293.273,60.225 292.355 C 59.588 291.610,58.632 291.168,58.102 291.371 C 57.408 291.637,57.031 290.950,56.759 288.923 C 56.481 286.851,55.465 285.046,52.925 282.114 C 47.989 276.416,45.586 270.402,46.184 265.245 C 46.636 261.352,46.605 261.253,44.728 260.627 C 43.310 260.154,42.614 259.286,42.054 257.292 C 41.162 254.110,38.554 253.065,33.359 253.805 C 22.331 255.376,4.861 252.566,4.861 249.221 C 4.861 248.855,6.111 247.366,7.639 245.913 C 10.842 242.866,11.520 239.339,9.028 238.688 C 8.072 238.438,7.639 237.740,7.639 236.450 C 7.639 235.419,6.723 233.419,5.604 232.005 C 2.410 227.973,0.948 223.776,2.104 221.959 C 3.972 219.023,5.556 215.313,5.556 213.872 C 5.556 212.493,5.796 212.430,9.375 212.877 L 13.194 213.354 13.194 209.816 C 13.194 207.870,12.684 205.002,12.060 203.443 C 10.459 199.441,11.123 193.503,13.447 191.053 C 14.764 189.665,15.077 188.759,14.775 187.215 C 14.416 185.386,14.921 184.694,20.091 179.924 C 25.125 175.278,25.847 174.308,26.182 171.743 C 26.957 165.789,24.456 162.895,21.187 165.966 L 19.576 167.480 19.096 165.969 C 18.720 164.785,19.173 163.948,21.183 162.106 L 23.750 159.755 23.529 153.315 L 23.309 146.875 29.326 140.799 C 32.636 137.457,35.920 134.722,36.623 134.722 C 42.094 134.722,46.557 123.462,43.461 117.473 C 41.874 114.405,41.851 107.964,43.421 106.230 C 44.622 104.903,44.604 101.557,43.367 96.439 C 42.953 94.724,43.133 94.564,46.382 93.785 C 51.437 92.572,56.492 87.535,58.057 82.149 C 58.698 79.945,59.463 77.669,59.758 77.092 C 60.053 76.514,60.828 74.479,61.482 72.569 C 62.135 70.660,63.105 68.747,63.636 68.319 C 67.752 65.006,70.022 57.574,67.938 54.237 C 66.795 52.406,68.199 49.321,72.321 44.611 C 74.144 42.528,75.986 39.763,76.414 38.467 C 77.371 35.567,77.334 35.566,81.753 38.542 C 85.920 41.348,86.969 41.491,89.394 39.583 C 90.365 38.819,91.548 38.194,92.022 38.194 C 92.496 38.194,93.549 36.650,94.361 34.762 C 95.312 32.551,97.074 30.287,99.308 28.403 C 101.940 26.183,102.778 25.010,102.778 23.543 C 102.778 20.874,103.676 20.569,105.576 22.591 C 106.731 23.821,107.920 24.306,109.782 24.306 C 111.859 24.306,112.754 24.756,114.266 26.563 C 119.803 33.175,129.477 33.008,131.265 26.269 C 132.623 21.146,139.432 9.028,140.952 9.028 C 141.778 9.028,143.271 4.340,142.819 3.164 C 142.043 1.140,143.094 1.004,147.798 2.524 " stroke="none" fill="#04ffff" fill-rule="evenodd">
</path>
</g>
<path name="西店镇" d="M123.9 30L125 34L127 36L129 39L129 43L131 45L134 45L136 45L139 45L141 46L142 48L144 51L143 53L141 56L140 59L141 62L143 65L146 67L150 68L155 69L159 70L162 72L166 74L171 76L174 78L175 78C176 78 177 77 177 77L178 76L178 73L178 70L179 67L181 66L182 63L182 61L184 56L184 53L183 51L180 47L179 45L180 40L178 39L176 37L176 34L176 31L177 28L179 28L182 28L183 26L183 24L184 23L184 21L182 18L181 16L180 13L180 11L180 9L180.7 6.2L178.3 4.9L175.9 3.8L174.3 2.9L173.2 3.6L171.5 6.4L170.8 8.2L169.1 8.5L166.1 9.099999L164.1 9.9L162.4 10.7L160 13L158.7 12.5L156.3 10.8L154.7 8.900001L155.2 8.1L153.4 5.7L152.1 3.9L150.1 2.8L148 2.2L145.6 1.5L143.4 0.8L142 1.4L143 4L141.1 6L141.8 7.5L139.9 7.900001L138.2 10.8L136.5 12.2L135.8 14.4L134.3 16.5L133.4 18.9L132 20.9L131 23.4L130.6 25.7L129.2 27L128.4 28.7L126.8 29.7L123.9 30Z" fill="#0094ff" fill-opacity="1" stroke="#05FFFF" stroke-opacity="1" transform="matrix(0.867,0,0,0.874,26.561,21.868)" xmlns="http://www.w3.org/2000/svg" />
<path name="强蛟镇" d="M181 7L180 9L180 12L180 14L181 16L182 18L183 19L184 21L184 23L183 24L183 26L182 28L177 28L176 31L176 37L180 40L179 45L181 48L183 51L184 53L184 56L182 61L182 63L181 66L179 67L178 70L178 76L180 76L182 75L183 73L185 72L187 70L189 69L190 67L194 67L197 68L202 67L204 65L210 63L212 62L215 62L218 64L219 65L221 65L222 62L222 59L222 56L224 54L226 51L228 49L230 48L233 46L236 45L238 45L238 47L240 47L242 47L243 46C243 46 244 45 245 44L246 43L247 42L250 41L251 38L252 36L253 34L256 33L258 32L260.9 30.7L263.9 29.7L266.3 28.3L270.3 27.3L271 26C271.6666 26 274 25.6 274 25L276.3 24.5L279.4 23.6L281.5 21.6L283 20L285 18L287 16L289 14L290 13L291.4 11.1L291.4 8.700001L287 8L283 8L280 8L275.7 6.5L272 7L268 8L264 8L261 9L259 11L255 14L252.6 16.5L249.6 19.5L246 23L243 25L239 24L236.1 23.3L234.1 21.7L230 22L227.1 21.3L223.5 21.6L219 21L214 21L208 21L202 21L198 21L195 20L193 18L191 15L189 12L186 10L183 8L181 7Z" fill="#04BFFA" fill-opacity="1" stroke="#05FFFF" stroke-opacity="1" transform="matrix(0.867,0,0,0.874,26.561,21.868)" xmlns="http://www.w3.org/2000/svg" />
<path name="大佳何镇" d="M202 67L203 70L204 73L206 76L208 81L211 85L215 88L217 91L223 89L228 88L234 88L240 90L244 92L249 92L255 91L259 89L263 89L265 90L268 90L268 87L268 85L269 83L271 82L275 82L278 80L279 78L280 76L282 76L287 78L290 79L293 79L295 78L296 76L297 74L295.2 71.5L292.5 69.2L291.4 65.7L288.4 64.7L285.9 62.7L284.1 60.8L280 58L278 58L276 60L274 61.4L270.8 61.2L267 61L262 61L258.4 60.4L256 58L255.4 54.1L254.3 50.9L253.3 47.9L251 46L250 43L250 41L247 42L242 47L238 47L238 45L236 45L233 46L228 49L226 51L224 54L222 56L222 62L221 65L219 65L215 62L212 62L207 64L204 65L202 67Z" fill="#00BFDC" fill-opacity="1" stroke="#05FFFF" stroke-opacity="1" transform="matrix(0.867,0,0,0.874,26.561,21.868)" xmlns="http://www.w3.org/2000/svg" />
<path name="力洋镇" d="M302.2 82.6L301.7 86.4L303.7 89.4L305.3 91.1L306.3 95.1L306 97L306 102L305 105L303 106L300 107L297 108L296 110L296 113L296 116L296 119L296 122L296 126L298 129L299 131L299 133L301 136L302 137L302 140L301 142L301 145L300 147L298 146L297 144L296 142L295 140L293 139L291 139L289 138L288 136L286 134L283 132L283 130L282 127C281 127 281 128 281 128L281 131L281 132L280 136L281 139L283 140L285 142L286 143C286 144 288 146 288 146L288 148L288 151L288 153L287 155L286 157L285 160L284 163L284 166L284 169L286 172L286 176L286 178L287 180L288 182L289 184L290 188L290 191L290 194L291 197L292 200L292 204L296.8 210.5L296.7 219.3L295.5 227.7L288.8 233L278.2 228.2L272.7 221.9L268.4 218L264.7 217.4L260.4 211.8L257.6 207.2L261.5 199.8L261.2 189.7L258.8 182.8L259 176L259 173L257 169L255 167L253 163L251 158L251 154L249 151L248 147L248 143L247 139L246 135L246 131L245 127L246 122L249 118L250 116L252 113L251 109L251 106L252 103L254 102L257 100L258 97L260 95L263 94L265 92L267.7 90.1L267.7 85.1L269 83L271 82L275 82L278 80L280 76L282 76L289 79L292 79L295 78L297.1 74.9L299.5 76.6L301.6 78.3L302.2 82.6Z" fill="#0489E5" fill-opacity="1" stroke="#05FFFF" stroke-opacity="1" transform="matrix(0.867,0,0,0.874,26.561,21.868)" xmlns="http://www.w3.org/2000/svg" />
<path name="东仓乡" d="M302 137L304 139L306 140L309 141L313 142L318 142L324 142L328 143L331 144L334 144L338 144L342 142L345 142L348 141L352 142L353 142L352 140L351 138L349 137L347 136L345 134L344 132L342 130L342 127L341 124L341 120L341 116L341 113L341 110L341 107L342 104L342 101L341 99L340 97L341 95L341 92L340 91L338 91L337 92L336 94L333 94L331 92L328 91L325 91L324 93L323 95L323 97L322 99L319 99L317 97L315 95L310.8 94.9L307 93L306 93L306 95C306 95 306 98 306 97L306 100L306 102L305 105L303 106L297 108L296 110L296 126L299 131L299 133L302 137Z" fill="#01E2FE" fill-opacity="1" stroke="#05FFFF" stroke-opacity="1" transform="matrix(0.867,0,0,0.874,26.561,21.868)" xmlns="http://www.w3.org/2000/svg" />
<path name="胡陈乡" d="M290 189L290 194L292 200L295 201L299 202L302 203L304 203L309 203L312 205L316 208L317 211C317 211 318 213 319 213L322 215L326 217L331 218L333 216L335 214L336 212L337 209L339 206L342 204L346 203L350 201L353 199L357 199L358 196L358 192L358 186L357 183L356 180L355 175L354 170L352 166L352 163L354 161L355 158L356 156L356 152L355 149L354 146L354 143L352 142L348 141L345 142L342 142L338 144L331 144L324 142L313 142L308 141L305 140L303 138L302 137L302 140L301 142L301 145L300 147L298 146L295 140L293 139L291 139L289 138L288 136L286 134L283 132L283 130L282 127L281 128L281 132L280 136L281 139L283 140L286 143L288 146L288 153L286 157L284 163L284 169L286 172L286 178L289 184L290 189Z" fill="#009BFF" fill-opacity="1" stroke="#05FFFF" stroke-opacity="1" transform="matrix(0.867,0,0,0.874,26.561,21.868)" xmlns="http://www.w3.org/2000/svg" />
<path name="长街镇" d="M292 200L296 201L301 203L308 203L310 203.6L316 207.6L316 208L317 211L319 213L322 215L326 217L331 218L335 214L337 209L339 206L342 204L346 203L353 199L357 199L358 201L361 200L363 198L368 197L372 198L379 198L385 198L388 196L393 196L396 199L398 202L399 205L399 208L398 212L396 216L393 218L390 220L387 222L385 224L384 227L383 229L382 232L381 235L381 238L380 241L379 244L378 246L377 249L377 251L376 254L375 260L374 264L372 267L366 267L361 267L356 268L352 270L346 271L340 271L338 268L335 265L334 260L332 255L330 251L327 250L324 248L320 245L317 244L313 244L310 246L305 247L301 247L295 246L292 244L292 241L290 238L290 236L291 234L289 233L295 228L296 226L296 223L297 219L297 214L297 210L292 204L292 200Z" fill="#00AADE" fill-opacity="1" stroke="#05FFFF" stroke-opacity="1" transform="matrix(0.867,0,0,0.874,26.561,21.868)" xmlns="http://www.w3.org/2000/svg" />
<path name="明港镇" d="M289 233L283 237L282 240L283 244L282 251L281 253L279 255L277 259L277 261L276 264L274 266L272 268L270 270L271 272L272 276L272 278L272 281L272 284L276 286L279 288L283 290L287 293L291 295L295 298L300 300L304 302L309 305L314 307L318 310L322 312L326 314L330 316L335 318L340 319L342 317L346 315L350 313L354 312L356 310L358 308L359 305L361 301L363 297L365 293L367 289L368 285L369 282L371 278L372 275L373 272L374 268L374 265L372 267L367 267L361 267L356 268L352 270L347 271L340 271L338 268L335 265L334 260L330 251L327 250L320 245L317 244L313 244L310 246L305 247L300 247L295 246L292 244L292 241L290 238L290 236L291 234L289 233Z" fill="#01E2FE" fill-opacity="1" stroke="#05FFFF" stroke-opacity="1" transform="matrix(0.867,0,0,0.874,26.561,21.868)" xmlns="http://www.w3.org/2000/svg" />
<path name="前横乡" d="M258 207L253 209L249 208L244 207L241 206L238 204L236 203L235 204L236 206L236 208L236 210L236 212L236 215L235 217L234 219L232 218L229 218L229 220L231 224L232 226L231 228L228 229L225 230L221 230L220 231L221 234L222 236L223 239L224 242L223 245L222 250L224 252L226 253L229 254L231 255L234 257L235 262L237 264L239 266L242 268L246 268L248 270L253 273L254 276L258 278L261 282L266 283L270 283L272 283L272 279L272 276L270 270L276 264L277 259L279 255L281 253L282 251L283 244L282 240L283 237L289 233L278 228L273 222L268 218L264 217L261 213L258 209L258 207Z" fill="#01F1FF" fill-opacity="1" stroke="#05FFFF" stroke-opacity="1" transform="matrix(0.867,0,0,0.874,26.561,21.868)" xmlns="http://www.w3.org/2000/svg" />
<path name="深甽镇" d="M104 20L108 23L112 24L115 26L118 28L120 30L124 31L125 34L129 39L129 43L131 45L138 45L141 46L143 49L144 51L143 53L141 56L140 59L141 62L143 65L142 67L141 70L140 73L141 76L139 79L136 79L135 80L133 84L134 86L132 89L130 92L126 94L124 96L124 98L123 102L121 106L118 110L116 113L112 116L109 120L109 124L111 128L109 131L105 134L101 138L97 137L94 138L92 140L89 141L87 142L83 142L78 142L75 143L70 143L64 142L60 140L54 139L50 139L43 140L41 138L39 137L36 137L33 136L37 133L40 131L42 129L43 126L44 122L43 120L42 117L42 114L41 112L42 109L42 106L43 104L44 101L43 98L42 95L43 93L45 93L48 92L51 91L53 89L54 87L55 86L56 84L57 82L58 79L59 75L60 73L61 71L62 68L64 66L66 64L67 62L68 60L68 57L67 55L67 53L67 50L69 47L71 44L73 43L74 41L75 38L76 36L78 35L81 37L84 38L86 39L89 38L91 37L93 35L95 32L97 29L99 27L101 25L102 23L103 21L104 20Z" fill="#00BFDC" fill-opacity="1" stroke="#05FFFF" stroke-opacity="1" transform="matrix(0.867,0,0,0.874,26.561,21.868)" xmlns="http://www.w3.org/2000/svg" />
<path name="双峰乡" d="M32 136L28 141L23 145L22 149L23 152L23 156L23 159L20 162L18 164L19 167L19 168L22 167L23 166L25 166L25 168L26 169L25 172L24 174L23 176L21 178L18 180L16 183L14 186L13 189L12 192L11 195L10 198L10 201L11 204L12 207L13 210L12 212L9 212L6 211L5 213L4 216L3 218L2 220L1 222L1 225L2 227L3 225L5 224L8 224L10 225L13 226L15 227L18 228L20 228L18 226L17 224L17 223L18 223L19 224L20 225L21 226L23 227L24 227L26 227L29 227L32 228L35 228L36 229L38 229L40 230L42 230L45 230L48 232L51 233L54 235L56 236L59 237L62 238L64 237L63 235L63 231L64 229L65 227L66 223L68 221L69 218L71 216L72 213L74 212L76 210L78 208L79 205L80 202L80 199L79 196L78 193L76 190L74 186L74 181L75 177L76 174L75 172L74 168L72 169L71 170L69 170L68 169L67 168L66 167L64 166L59 165L57 163L57 160L55 158L54 156L51 155L48 154L46 152L44 151L42 149L40 147L39 145L38 143L36 140L35 139L33 138L32 136Z" fill="#0489E5" fill-opacity="1" stroke="#05FFFF" stroke-opacity="1" transform="matrix(0.867,0,0,0.874,26.561,21.868)" xmlns="http://www.w3.org/2000/svg" />
<path name="岔路镇" d="M2 228L3 225L5 224L8 224L10 225L13 226L15 227L18 228L20 228L18 226L17 224L17 223L18 223L19 224L20 225L21 226L23 227L25 227L27 227L29 227L32 228L35 228L36 229L38 229L40 230L45 230L48 232L51 233L54 235L56 236L62 238L64 237L63 235L63 232L63 230L65 227L66 223L68 221L69 218L71 216L72 213L74 212L77 209L78 208L80 208L85 209L88 211L91 213L95 214L97 214L98 216L99 218L101 221L104 224L107 225L109 228L110 232L110 235L110 241L109 244L106 247L105 250L105 253L104 256L101 258L100 261C101 261 99 264 99 264L99 267L97 271L95 273L92 274L88 274L85 276L83 278L80 279L77 279L75 279L75 281L74 283L74 284L72 285L70 286L68 287L67 288L66 291L65 292L63 295L61 295L59 293L56 292L55 290L55 288L55 285L53 283L51 281L49 279L47 276L46 273L45 270L45 267L45 264L45 262L43 261L41 258L41 256L39 255L36 254L33 254L29 255L24 255L20 255L18 254L14 254L10 253L7 252L5 251L4 249L5 247L7 245L9 243L9 241L8 239L7 237L6 235L5 233L3 231L2 228Z" fill="#0686C1" fill-opacity="1" stroke="#05FFFF" stroke-opacity="1" transform="matrix(0.867,0,0,0.874,26.561,21.868)" xmlns="http://www.w3.org/2000/svg" />
<path name="桑洲镇" d="M62 297L64 294L65 292L66 290L67 288L68 287L70 286L72 285L74 284L75 281L75 279L78 279L80 279L83 278L85 276L88 274L92 274L95 273L97 271L99 267L99 264L100 261L101 258L104 256L105 253L106 253L107 254L108 255L111 256L113 256L115 257L116 258L117 259L118 261L119 263L120 265L121 266L122 268L121 269L119 271L120 274L122 276L122 280L121 283L121 286L119 288L119 291L117 293L116 295L115 297L114 299L113 302L113 304L114 307L114 309L115 312L113 314L112 316L110 319L108 321L106 322L104 323L101 325L100 327L99 329L97 331L96 333L95 335L93 335L92 334L92 331L91 329L89 328L87 328L84 328L84 330L84 332L84 334L84 336L84 338L83 340L83 341L82 343L81 345L80 346L78 346L76 344L74 343L73 341L71 339L69 338L67 336L67 333L67 331L65 330L62 328L59 328L59 326L59 324L59 322L60 321L60 318L60 316L60 314L60 311L60 308L60 306L60 304L60 302L60 299L62 297Z" fill="#01E2FE" fill-opacity="1" stroke="#05FFFF" stroke-opacity="1" transform="matrix(0.867,0,0,0.874,26.561,21.868)" xmlns="http://www.w3.org/2000/svg" />
<path name="前童镇" d="M87 210L88 208L90 207L93 205L95 206L97 207L99 206L102 205L103 206L105 207L107 208L108 208L109 207L110 206L113 205C114 205 115 206 115 206L117 207L119 209L120 211C120 211 122 212 122 213L123 214L125 215L128 215L132 215L135 215L138 214L140 214L143 213L146 212L149 212L152 212L154 212L158.1 211.9L160.8 212.3L163 213L166 214L167.3 212.9C168.3 213.9 169.7 214.2 169.7 214.2C170.7 214.2 172 216.4 172 216.4L172 218L170 218L168.4 219.3L166.4 220.3L165.7 221.3L165.7 222.3L165 224L166.2 226L166 228L168.1 229.5L169 232L167 232L165 233L163 234L161 235L159 236L157 237L155 237L152 238L151 238L149 239L146 240L145 241L144 242L143 243L141 244L139 246L138 248L137 249L135 250L133 252L132 254L131 256L131 258L131 261L131 262L130 264L127 266L125 267L123 268L121 266L120 265L119 263L118 261L117 259L115 257L113 256L111 256L109 255L107 254L105 253L105 251L105 249L106 247L107 246L108 245L109 244L110 241L110 237L110 234L110 232L109 230L109 228L108 226L107 225L104 224L103 223L101 221L97 214L95 214L93 213L91 213L87 210Z" fill="#1A3A83" fill-opacity="1" stroke="#05FFFF" stroke-opacity="1" transform="matrix(0.867,0,0,0.874,26.561,21.868)" xmlns="http://www.w3.org/2000/svg" />
<path name="一市镇" d="M157 237L167 232L169 232L171 232L173 232L174 231L176 231L177 231L178 231L180 231L181 231L182 231L183 232L182 233L182 234L183 234L184 234L186 234L188 234L190 234L192 234L193 234L194 233L195 232L196 231L197 231L199 232L201 233L202 234L204 234L206 235L208 237L209 238L211 239L213 239L215 239L217 240L218 241L220 243L221 244L223 245L223 247L222 249L222 250L224 252L226 253L228 254L230 254L231 255L232 256L234 257L234 259L235 261L236 263L237 264L239 266L241 267L243 268L245 268L247 269L248 270L249 271L251 272L253 273L253 275L254 276L256 277L258 278L259 279L260 281C260 281 260 282 259 282L257 282L255 282L252 281L249 280L246 281L244 281L242 283L240 285L238 287L237 289L236 291L235 293L234 295L233 297L232 299L231 301L230 303L229 305L228 307L225 309L222 310L218 309L214 308L211 307L208 306L205 306L202 306L198 305L195 304L192 303L189 302L187 299L185 297L183 295L180 294L178 292L174 291L170 291L166 291L163 292L160 293L155 293L151 293L148 292L147 290L147 288L148 286L149 283L148 280L148 278L147 276L146 274L144 272L142 269L141 267L139 265L138 263L137 261L134 260L132 261L131 260L131 256L133 252L135 250L137 249L139 246L141 244L143 243L144 242L146 240L149 239L151 238L153 238L155 237L157 237Z" fill="#65A2E0" fill-opacity="1" stroke="#05FFFF" stroke-opacity="1" transform="matrix(0.867,0,0,0.874,26.561,21.868)" xmlns="http://www.w3.org/2000/svg" />
<path name="黄坛镇" d="M32 136L35 137L38 137L41 138L43 140L49 139L52 139L54 139L59 140L60 140L63 142L66 142L69 143L72 143L76 143L79 142L83 142L86 142L89 141L92 140L94 138L97 137L101 138L104 135L106 133L109 131L110 129L111 128L110 126L109 124L111 124L112 125L113 126L115 127L117 127L119 128L121 128L123 128L124 128L125 129L127 130L130 130L132 130L133 131L133 133L133 136L134 137L136 139L136 141L135 143L135 145L136 147L137 149L137 151L138 154L139 154L141 155L141 156L141 158L141 159L141 161L142 163L142 164L142 166L142 168L143 170L145 172L145 174L144 176L144 179L145 180L146 181L146 183L147 186L148 187L149 190L148 192L148 194C148 195 148 197 148 197L149 198L150 199L151 200L153 201L154 203L155 204L155 206L156 209L156 211L157 212L154 212L152 212L150 212L148 212L146 212L144 213L142 213L141 214L139 214L135 215L131 215L128 215L125 215L123 214L122 213L120 211L119 209L117 207L115 206L113 205L110 206L108 208L105 207L103 206L102 205L99 206L97 207L93 205L88 208L87 210L85 209L81 208L78 208L79 204L80 201L80 198L79 196L78 192L76 190L74 186L74 181L76 174L74 168L71 170L69 170L66 167L64 166L59 165L57 163L57 160L55 158L54 156L48 154L46 152L44 151L40 147L38 143L36 140L33 138L32 136Z" fill="#04BFFA" fill-opacity="1" stroke="#05FFFF" stroke-opacity="1" transform="matrix(0.867,0,0,0.874,26.561,21.868)" xmlns="http://www.w3.org/2000/svg" />
<path name="梅林街道" d="M143 65L146 67L149 68L153 69L159 70L162 72L166 74L171 76L174 78L175 80L176 84L176 86L175 89L172 90L173 92L174 93L175 95L177 96L180 97L184 99L185 100L187 103L188 105L188 108L191 109L194 110L196 111L196 112L198 114L202 115L203 116L207 118L207 120L208 123L203 124L200 124L196 123L191 122L184 121L183 119L180 118L176 117L174 117L170 117L166 117L162 118C162 118 161 119 160 119L156 119L152 117L150 119L146 120L143 121L141 123L140 125L138 125L136 125L136 127L134 128L131 130L127 130L124 128L119 128L117 127L115 127L113 126L111 124L109 124L109 120L112 116L116 113L121 106L123 102L124 98L124 96L126 94L130 92L134 86L133 84L135 80L136 79L139 79L141 76L140 73L143 65Z" fill="#02ACD9" fill-opacity="1" stroke="#05FFFF" stroke-opacity="1" transform="matrix(0.867,0,0,0.874,26.561,21.868)" xmlns="http://www.w3.org/2000/svg" />
<path name="桥头胡街道" d="M174 78L177 77L178 76L181 76L182 75L183 73L185 72L187 70L189 69L190 67L194 67L197 68L202 67L203 70L204 72L204 73L206 76L208 81L210 84L212 86L215 88L217 91L220 90L224 89L227 88L231 88L234 88L236 89L239 90L238 92L237 93L235 93L234 94L231 95L230 96L228 97L226 98L225 99L223 100L221 102L219 103L216 105L214 107L214 109L212 111L210 112L208 114L206 116L206 117L204 117L203 116L202 115L198 114L196 112L196 111L193 110L189 108L188 108L188 106L188 104L187 103L186 101L184 99L180 97L175 95L174 93L173 92L172 90L175 89L176 86L176 83L175 81L174 78Z" fill="#01E2FE" fill-opacity="1" stroke="#05FFFF" stroke-opacity="1" transform="matrix(0.867,0,0,0.874,26.561,21.868)" xmlns="http://www.w3.org/2000/svg" />
<path name="茶院乡" d="M239 90L244 92L249 92L254 91L259 89L263 89L266 90L267 90L263 94L260 95L258 97L257 100L252 103L251 106L251 108L251 111L252 112L251 114L250 116L249 118L246 122L245 127L246 131L246 135L247 139L248 143L248 147L249 151L251 154L251 157L251 159L252 161L253 163L249 164L247 163L243 162L241 162L239 161L238 159L238 156L238 153L236 152L234 150L231 150L230 151L228 153L226 153L224 153L221 152L217 150L215 150L211 148L209 147L206 145L204 143L203 142L201 141L198 139L197 138L196 136L196 134L194 131L193 129L193 127L193 125L193 123L196 123L199 124L202 124L205 124L208 123L207 120L207 118L206 117L206 115L208 114L210 112L212 111L214 109L214 107L216 105L219 103L221 102L223 100L225 99L226 98L230 96L231 95L234 94L235 93L237 93L239 90Z" fill="#0686C1" fill-opacity="1" stroke="#05FFFF" stroke-opacity="1" transform="matrix(0.867,0,0,0.874,26.561,21.868)" xmlns="http://www.w3.org/2000/svg" />
<path name="越溪乡" d="M253 163L255 167L257 169L259 173L259 183L261 190L261 191L261 194L261 198L261 200L260 202L259 204L258 206L257 207L255 208L253 209L241 206L236 203L235 204L236 207L236 215L234 219L232 218L229 218L229 220L232 226L231 228L225 230L221 230L220 231L220 232L221 234L222 236L223 239L224 242L223 245L221 244L217 240L215 239L211 239L209 238L206 235L204 234L202 234L197 231L196 231L193 234L193 231L194 226L197 225L197 221L196 217L197 214L199 212L201 209L201 205L203 204L205 203L206 200L207 196L207 192L208 189L209 187L212 186L212 182L211 178L210 175L210 172L209 169L210 167L213 167L216 167L217 166L217 163L216 161L215 158L216 156L217 154L217 152L217 150L221 152L224 153L228 153L231 150L234 150L236 152L238 153L238 159L239 161L241 162L243 162L247 163L249 164L253 163Z" fill="#04BFFA" fill-opacity="1" stroke="#05FFFF" stroke-opacity="1" transform="matrix(0.867,0,0,0.874,26.561,21.868)" xmlns="http://www.w3.org/2000/svg" />
<path name="桃源街道" d="M140 125L141 123L143 121L150 119L152 117L156 119L160 119L162 118L166 117L176 117L183 119L184 121L188 122L193 122L193 129L196 134L196 136L197 138L203 142L206 145L209 147L215 150L217 150L217 154L215 158L217 163L217 166L215 167L210 167L209 169L210 172L210 175L206 174L204 172L199 171L195 171L189 171L187 169L185 168L181 168L179 169L176 169L173 167L171 165L166 165L163 164L162 162L158 163L157 165L157 167L156 168L154 169L153 170L151 170L149 169L147 168L145 169L143 170L142 168L142 163L141 161L141 155L139 154L138 154L137 151L137 149L135 145L135 143L136 141L136 139L133 136L133 131L132 130L133 128L136 127L136 125L140 125Z" fill="#78BEFF" fill-opacity="1" stroke="#05FFFF" stroke-opacity="1" transform="matrix(0.867,0,0,0.874,26.561,21.868)" xmlns="http://www.w3.org/2000/svg" />
<path name="跃龙街道" d="M151 170L153 170L154 169L156 168L157 167L157 165L158 163L162 162L163 164L166 165L171 165L173 167L176 169L179 169L181 168L185 168L187 169L189 171L199 171L204 172L206 174L210 175L212 182L212 186L209 187L207 192L207 196L205 203L201 205L201 209L199 212L197 214L196 217L197 221L197 225L194 226L193 232L193 234L182 234L183 232L182 231L174 231L173 232L169 232L168 229L166 228L166 226L165 224L166 221L169 219L171 218C172 218 172 216 172 216L170 214L167 213L166 214L161 212L156 212L156 211L156 209L155 206L155 204L153 201L151 200L148 197L148 192L149 190L148 187L147 186L146 183L146 181L144 179L144 176L145 174L145 172L143 170L147 168L151 170Z" fill="#0489E5" fill-opacity="1" stroke="#05FFFF" stroke-opacity="1" transform="matrix(0.867,0,0,0.874,26.561,21.868)" xmlns="http://www.w3.org/2000/svg" />
<text x="150" y="37.8" xml:space="preserve" font-family="宋体" font-size="7" fill="#FFF" stroke="none" baseline-shift="baseline" font-weight="bold" transform="matrix(0.867,0,0,0.874,26.561,21.868)" xmlns="http://www.w3.org/2000/svg">
西店镇</text>
<text x="195" y="42.8" xml:space="preserve" font-family="宋体" font-size="7" fill="#FFF" stroke="none" baseline-shift="baseline" font-weight="bold" transform="matrix(0.867,0,0,0.874,26.561,21.868)" xmlns="http://www.w3.org/2000/svg">
强蛟镇</text>
<text x="235" y="75.8" xml:space="preserve" font-family="宋体" font-size="7" fill="#FFF" stroke="none" baseline-shift="baseline" font-weight="bold" transform="matrix(0.867,0,0,0.874,26.561,21.868)" xmlns="http://www.w3.org/2000/svg">
大佳何镇</text>
<text x="264" y="120.8" xml:space="preserve" font-family="宋体" font-size="7" fill="#FFF" stroke="none" baseline-shift="baseline" font-weight="bold" transform="matrix(0.867,0,0,0.874,26.561,21.868)" xmlns="http://www.w3.org/2000/svg">
力洋镇</text>
<text x="310" y="125.8" xml:space="preserve" font-family="宋体" font-size="7" fill="#FFF" stroke="none" baseline-shift="baseline" font-weight="bold" transform="matrix(0.867,0,0,0.874,26.561,21.868)" xmlns="http://www.w3.org/2000/svg">
东仓乡</text>
<text x="310" y="175.8" xml:space="preserve" font-family="宋体" font-size="7" fill="#FFF" stroke="none" baseline-shift="baseline" font-weight="bold" transform="matrix(0.867,0,0,0.874,26.561,21.868)" xmlns="http://www.w3.org/2000/svg">
胡陈乡</text>
<text x="330" y="230.8" xml:space="preserve" font-family="宋体" font-size="7" fill="#FFF" stroke="none" baseline-shift="baseline" font-weight="bold" transform="matrix(0.867,0,0,0.874,26.561,21.868)" xmlns="http://www.w3.org/2000/svg">
长街镇</text>
<text x="310" y="275.8" xml:space="preserve" font-family="宋体" font-size="7" fill="#FFF" stroke="none" baseline-shift="baseline" font-weight="bold" transform="matrix(0.867,0,0,0.874,26.561,21.868)" xmlns="http://www.w3.org/2000/svg">
明港镇</text>
<text x="245" y="245.8" xml:space="preserve" font-family="宋体" font-size="7" fill="#FFF" stroke="none" baseline-shift="baseline" font-weight="bold" transform="matrix(0.867,0,0,0.874,26.561,21.868)" xmlns="http://www.w3.org/2000/svg">
前横乡</text>
<text x="180" y="270.8" xml:space="preserve" font-family="宋体" font-size="7" fill="#FFF" stroke="none" baseline-shift="baseline" font-weight="bold" transform="matrix(0.867,0,0,0.874,26.561,21.868)" xmlns="http://www.w3.org/2000/svg">
一市镇</text>
<text x="230" y="185.8" xml:space="preserve" font-family="宋体" font-size="7" fill="#FFF" stroke="none" baseline-shift="baseline" font-weight="bold" transform="matrix(0.867,0,0,0.874,26.561,21.868)" xmlns="http://www.w3.org/2000/svg">
越溪乡</text>
<text x="220" y="125.8" xml:space="preserve" font-family="宋体" font-size="7" fill="#FFF" stroke="none" baseline-shift="baseline" font-weight="bold" transform="matrix(0.867,0,0,0.874,26.561,21.868)" xmlns="http://www.w3.org/2000/svg">
茶院乡</text>
<text x="165" y="145.8" xml:space="preserve" font-family="宋体" font-size="7" fill="#FFF" stroke="none" baseline-shift="baseline" font-weight="bold" transform="matrix(0.867,0,0,0.874,26.561,21.868)" xmlns="http://www.w3.org/2000/svg">
桃源街道</text>
<text x="170" y="200.8" xml:space="preserve" font-family="宋体" font-size="7" fill="#FFF" stroke="none" baseline-shift="baseline" font-weight="bold" transform="matrix(0.867,0,0,0.874,26.561,21.868)" xmlns="http://www.w3.org/2000/svg">
跃龙街道</text>
<text x="145" y="100.8" xml:space="preserve" font-family="宋体" font-size="7" fill="#FFF" stroke="none" baseline-shift="baseline" font-weight="bold" transform="matrix(0.867,0,0,0.874,26.561,21.868)" xmlns="http://www.w3.org/2000/svg">
梅林街道</text>
<text x="190" y="95.8" xml:space="preserve" font-family="宋体" font-size="7" fill="#FFF" stroke="none" baseline-shift="baseline" font-weight="bold" transform="matrix(0.867,0,0,0.874,26.561,21.868)" xmlns="http://www.w3.org/2000/svg">
桥头胡街道</text>
<text x="80" y="80.8" xml:space="preserve" font-family="宋体" font-size="7" fill="#FFF" stroke="none" baseline-shift="baseline" font-weight="bold" transform="matrix(0.867,0,0,0.874,26.561,21.868)" xmlns="http://www.w3.org/2000/svg">
深甽镇</text>
<text x="100" y="170.8" xml:space="preserve" font-family="宋体" font-size="7" fill="#FFF" stroke="none" baseline-shift="baseline" font-weight="bold" transform="matrix(0.867,0,0,0.874,26.561,21.868)" xmlns="http://www.w3.org/2000/svg">
黄坛镇</text>
<text x="40" y="200.8" xml:space="preserve" font-family="宋体" font-size="7" fill="#FFF" stroke="none" baseline-shift="baseline" font-weight="bold" transform="matrix(0.867,0,0,0.874,26.561,21.868)" xmlns="http://www.w3.org/2000/svg">
双峰乡</text>
<text x="65" y="250.8" xml:space="preserve" font-family="宋体" font-size="7" fill="#FFF" stroke="none" baseline-shift="baseline" font-weight="bold" transform="matrix(0.867,0,0,0.874,26.561,21.868)" xmlns="http://www.w3.org/2000/svg">
岔路镇</text>
<text x="125" y="230.8" xml:space="preserve" font-family="宋体" font-size="7" fill="#FFF" stroke="none" baseline-shift="baseline" font-weight="bold" transform="matrix(0.867,0,0,0.874,26.561,21.868)" xmlns="http://www.w3.org/2000/svg">
前童镇</text>
<text x="80" y="305.8" xml:space="preserve" font-family="宋体" font-size="7" fill="#FFF" stroke="none" baseline-shift="baseline" font-weight="bold" transform="matrix(0.867,0,0,0.874,26.561,21.868)" xmlns="http://www.w3.org/2000/svg">
桑洲镇</text>
</svg>